<?xml version="1.0" encoding="UTF-8"?> <!-- Generator: Adobe Illustrator 24.0.1, SVG Export Plug-In . SVG Version: 6.00 Build 0) --> <svg xmlns="http://www.w3.org/2000/svg" xmlns:xlink="http://www.w3.org/1999/xlink" version="1.1" id="Layer_1" x="0px" y="0px" width="741.1px" height="401.3px" viewBox="0 0 741.1 401.3" style="enable-background:new 0 0 741.1 401.3;" xml:space="preserve"> <style type="text/css"> .st0{fill:#E5E7ED;} .st1{fill:#D1D4DD;} .st2{fill:#587267;} .st3{fill-opacity:0.15;} .st4{fill:#B7B7B7;} .st5{fill-rule:evenodd;clip-rule:evenodd;fill-opacity:0.2;} .st6{fill-rule:evenodd;clip-rule:evenodd;fill-opacity:0.3;} .st7{fill-rule:evenodd;clip-rule:evenodd;fill:#E5E7ED;} .st8{fill-rule:evenodd;clip-rule:evenodd;fill:#D1D4DD;} .st9{fill-rule:evenodd;clip-rule:evenodd;fill:#FF90D4;} .st10{fill-rule:evenodd;clip-rule:evenodd;fill:#E27FC1;} .st11{fill:#7FC67C;} .st12{fill:#2E4038;} .st13{fill:#979797;} .st14{fill:none;stroke:#979797;stroke-width:0.4471;} .st15{fill-rule:evenodd;clip-rule:evenodd;fill:#525252;} .st16{fill:#C9C9C9;} .st17{fill:#DDDDDD;} .st18{fill-opacity:4.000000e-02;} .st19{opacity:0.526;fill:#FFFFFF;enable-background:new ;} .st20{opacity:5.700000e-02;fill:#FFFFFF;enable-background:new ;} .st21{opacity:0.618;fill:#FFFFFF;enable-background:new ;} .st22{fill:#B5CEE1;} .st23{fill:#B74D55;} .st24{fill-opacity:0.2;} .st25{fill:#F0A19E;} .st26{fill:#FFFFFF;} .st27{fill:#D3EEF4;} .st28{opacity:0.541;fill-opacity:8.000000e-02;enable-background:new ;} .st29{fill:#C9C8C8;} .st30{fill:#294B67;} .st31{fill:#CEE0F4;} .st32{fill:#FAFAFA;} .st33{fill:#1E3142;} .st34{fill:#C1C1C1;} .st35{fill:#E9E9E9;} .st36{fill-opacity:2.000000e-02;} .st37{fill:#9A6059;} .st38{fill:#2A4862;} .st39{fill:#E4E4E4;} .st40{fill:#F6BEBC;} .st41{fill:#B11313;} .st42{fill:#ECECEC;} </style> <g transform="translate(340.000000, 425.000000)"> <g id="Group-3" transform="translate(0.000000, 178.661360)"> <g id="Group" transform="translate(642.477534, 50.000000)"> <g id="globalStyle1_x2F_objects_x2F_plant_x2F_4--globalStyle1_x2F_objects_x2F_plant_x2F_4"> <g id="Group--globalStyle1_x2F_objects_x2F_plant_x2F_4" transform="translate(23.422505, 105.756160)"> <g id="Group-17--globalStyle1_x2F_objects_x2F_plant_x2F_4" transform="translate(0.587692, 0.140535)"> <polygon id="Fill-15--globalStyle1_x2F_objects_x2F_plant_x2F_4" class="st0" points="-293.5,-372.3 -334.3,-372.3 -340.7,-424.6 -286.8,-424.7 "></polygon> </g> <polygon id="Fill-18--globalStyle1_x2F_objects_x2F_plant_x2F_4" class="st1" points="-286.2,-410.2 -340.1,-410.1 -340.2,-424.5 -286.2,-424.6 "></polygon> </g> <path id="_x5B_color_x5D_color--globalStyle1_x2F_objects_x2F_plant_x2F_4" class="st2" d="M-285.3-425c2.5,3,4.2,5.7,5,8.2 s1.4,5,1.9,7.6l-4.8,5.3l4.2-2.6c-0.9,5.2-1.3,9-1.3,11.2s-0.1,4.2-0.3,5.9l-3.7-1.1l3.2,2.9c-0.2,1.6-0.5,3-0.9,4.3 c-0.3,1.3-0.6,2.1-0.9,2.4l-2.8-1.1l2.3,3.1c-1.8,4.3-4,6.1-6.5,5.5h-0.1v24.6v-0.4c0.5-5.4,2.1-11.5,4.6-18.4 c1.4-7.5,3.1-13.9,5.1-19.4c2.2-6,7-13,14.3-21.1c0.1,2.5,0,4.9-0.3,7.1s-1.1,5.6-2.1,10.2c-0.4-0.5-0.9-0.9-1.4-1.3 s-1.3-0.7-2.3-1c2.1,2.4,3.1,3.8,3.1,4.2c0,0.6-1.4,3.1-2.3,4.7c-0.4,0.8-1.3,2.5-2.6,5.2c2.4-2.3,5-3.8,8.5-5.7 c4.4-2.4,12.3-2.7,23.7-0.8c-0.6,1.3-1.6,2.7-2.9,4.2s-3.5,3.2-6.7,5l0,0l-2.7-2.1l1,2.9c-2.7,0.9-4.9,1.8-6.4,2.7 s-4,2.9-7.3,5.9l0,0l-2.9-3.4l1.3,4.3c-1.1,0.9-2.6,2.1-4.5,3.4s-5.5,2.7-10.8,4.3c-0.8,2-1.7,4.2-2.6,6.7 c-1.6,4.4-2.9,12.6-3.7,24.4l0,0l-0.1,1.3l-0.1,1.3c0,2.3-0.1,4.3-0.3,6.2l0,0l-0.8-0.1c0.1-2.2,0.2-4.2,0.3-6.2 c0-3-0.1-6.4-0.3-10.1l0,0v-0.3c-0.5-5.8-2.4-15.4-5.7-28.6l0,0l-0.5-2l-0.8-2.5c-2.3-0.4-4.5-1-6.6-1.6 c-2.2-0.7-4.8-2.5-7.7-5.4l0,0l0.9-5.9l-3.1,4.8c-3.1-2.8-5.3-5-6.9-6.4c-1.5-1.5-3.7-2.1-6.6-1.8l0,0l1.5-4.3l-3.2,3.4 c-1.6-0.5-3.1-1.3-4.8-2.4c-1.6-1.1-3.7-3.4-6.3-6.9c1.3,0,3.3-0.3,6.3-0.8c4.4-0.8,14.2,0,24.2,4.5c0.2,0.1,0.3,0.2,0.5,0.2 c-0.7-1.6-1.5-3.8-2.6-6.6l2.7-4.8l-3.5,1.9c-1.1-2.7-1.9-5.2-2.4-7.5s-0.5-5.2,0-8.8c6,5.3,10.5,11.7,13.4,19 c2.9,7.2,4.9,14.5,6,21.7c1.6,4.7,2.6,8.5,3,11.5c0.4,2.6,1,8.4,1.9,17.4l0,0l0.8,8.5c0-0.3,0-0.6,0-0.9v-34.4 c-3-1.5-3.2-7.1-3.2-10.2c0-2.3-0.1-4.5-0.3-6.6l2.8-2.7l-2.8,0.4v-11.7l3.4-0.4l-3.4-1.4c0.3-4.1,0.9-7,1.9-8.7 C-291.3-416.8-288.9-420.1-285.3-425z M-279.9-370.5L-279.9-370.5c-1.2,1.1-2.8,2.6-5,4.5c-2.2,6.3-3.6,12-4.1,17 c-0.4,3.7-0.6,7.5-0.8,11.3v1.8c0.8-7.5,1.8-12.9,3-16.3c0.9-2.5,1.8-4.8,2.7-6.9C-284.3-361.5-282.9-365.3-279.9-370.5 C-279.9-370.4-279.9-370.5-279.9-370.5z M-300.3-378.9c1.1,2.9,2,6.3,2.6,10.2l0,0c2.5,9.5,4.5,17.5,5.8,23.8v-0.4 c-0.6-8-1-13.4-1.4-16.6l0,0l-0.2-1.4l-0.1-0.6c-0.5-3.1-2-7.4-3.7-12.3L-300.3-378.9z M-278.1-379l1.1,3.9 c0.4-0.5,0.7-1,1.1-1.5c-0.1-0.2-0.2-0.3-0.3-0.5C-276.4-377.6-277.1-378.2-278.1-379L-278.1-379z M-303.7-388.3l-0.6,2.1 c0.2,0.2,0.4,0.5,0.6,0.8V-388.3z"></path> <path id="shadow--globalStyle1_x2F_objects_x2F_plant_x2F_4" class="st3" d="M-265.7-407.9c0.1,2.5,0,4.9-0.3,7.1 s-1.1,5.6-2.1,10.2c-0.4-0.5-0.9-0.9-1.4-1.3s-1.3-0.7-2.3-1c2.1,2.4,3.1,3.8,3.1,4.2c0,0.6-1.4,3.1-2.3,4.7 c-0.4,0.8-1.3,2.5-2.6,5.2c2.4-2.3,5-3.8,8.5-5.7c4.4-2.4,12.3-2.7,23.7-0.8c-11-0.8-19.9,1.1-26.8,5.7s-12.1,11.8-15.7,21.5 c-0.6-2.3,0.7-6.4,4-12.1l0.1-0.1c-1.3,1.2-3.2,2.9-5.6,5.2c1.4-8.4,3.3-15.5,5.5-21.5C-277.7-392.6-273-399.8-265.7-407.9z M-334.6-395.6c4.4-0.8,14.2,0,24.2,4.5c6.7,3,10.9,10.6,12.8,22.9c-1.6-9.6-5.8-16.6-12.8-20.9c-6.8-4.2-16.5-6.1-29.2-5.8 h-0.4C-338.8-394.9-337-395.2-334.6-395.6z M-285.3-425c2.5,3,4.2,5.7,5,8.2s1.4,5,1.9,7.6l-4.8,5.3l4.3-2.6 c-0.9,5.2-1.3,9-1.3,11.2s-0.1,4.2-0.3,5.9l-3.7-1.1l3.3,2.9c-0.2,1.6-0.5,3-0.9,4.3s-0.6,2.1-0.9,2.4l-2.8-1.1l2.4,3.1 c-1.9,4.3-4,6.1-6.6,5.5C-289.8-373.3-288.3-390.5-285.3-425z M-278.1-379l1.1,3.9c0.4-0.5,0.7-1,1.1-1.5 c-0.1-0.2-0.2-0.3-0.3-0.5C-276.4-377.6-277.1-378.2-278.1-379L-278.1-379z"></path> </g> </g> <g id="Table-and-Cactus" transform="translate(509.477534, 31.000000)"> <g id="Group_1_" transform="translate(0.000000, 54.000000)"> <g id="globalStyle1_x2F_objects_x2F_table_x2F_moneytable_x2F_2--globalStyle1_x2F_objects_x2F_table_x2F_moneytable_x2F_2"> <polygon id="_x5B_color:objects_x5D_table--globalStyle1_x2F_objects_x2F_table_x2F_moneytable_x2F_2" class="st4" points=" -201.7,-424.9 -201.7,-409.6 -263.6,-409.6 -263.6,-316.1 -243.4,-316.1 -243.4,-310.6 -297.1,-310.6 -297.1,-316.1 -278.2,-316.1 -278.2,-409.6 -340.1,-409.6 -340.1,-424.9 "></polygon> </g> </g> <g id="Group--globalStyle1_x2F_animalsandobjects_x2F_plant" transform="translate(56.500000, 0.000000)"> <path id="_x5B_color_x5D_color--globalStyle1_x2F_animalsandobjects_x2F_plant" class="st2" d="M-331-403.1c0,0-3.3-0.8-4.5-4.5 c-1.2-3.8-1.3-7.9-3.1-7.6c-1.8,0.3-1.5,7.6-0.3,10.9c1.1,3.3,3.5,6.6,7.2,6.8C-328.1-397.3-331-403.1-331-403.1"></path> <path id="shadow--globalStyle1_x2F_animalsandobjects_x2F_plant" class="st5" d="M-338.4-413.5c0.1,0.3,0.2,0.8,0.3,1.2 c0,0.2,0.1,0.9,0.2,1c0.1,0.5,0.1,0.9,0.2,1.3c0.2,1.1,0.5,2.1,0.8,3c0.9,2.6,2.3,4.5,4.2,5.4c1.9,1,3.7,1.1,5,0.7 c0.3-0.1,0.5-0.2,0.6-0.2l-0.3-0.4c0,0-0.1,0-0.1,0.1c-0.1,0.1-0.2,0.1-0.3,0.1c-1.2,0.3-2.7,0.2-4.5-0.6 c-1.9-0.9-3.1-2.7-4-5.1c-0.3-0.9-0.6-1.9-0.8-2.9c-0.1-0.4-0.1-0.8-0.2-1.2c0-0.1-0.1-0.8-0.2-1c-0.1-0.5-0.2-0.9-0.3-1.3 c-0.1-0.5-0.3-0.9-0.5-1.1c-0.1-0.2-0.2-0.3-0.3-0.3l-0.2-0.1l-0.1-0.1c-0.1,0.1-0.3,0.4-0.5,0.8c-0.4,1.1-0.5,2.8-0.2,5.4 c0.2,1.3,0.8,3.3,1.7,4.9c1,2.1,2.3,3.7,3.8,4.3c2,0.9,3.8,1.1,5.2,0.8c0.2-0.1,0.4-0.1,0.5-0.2l-0.2-0.5c0,0-0.1,0-0.1,0.1 c-0.1,0-0.2,0.1-0.3,0.1c-1.3,0.3-3,0.1-4.8-0.8c-2.4-1.1-4.6-5.6-5.1-8.9c-0.3-2.5-0.3-4.1,0.1-5.1c0.1-0.1,0.1-0.2,0.1-0.3 C-338.6-414.2-338.5-413.9-338.4-413.5z"></path> <path id="_x5B_color_x5D_color--globalStyle1_x2F_animalsandobjects_x2F_plant_1_" class="st2" d="M-324.5-410.1 c0,0,2.4-0.5,3.3-3.3c0.9-2.7,0.9-5.7,2.3-5.5c1.3,0.2,1.1,5.5,0.3,7.9c-0.8,2.4-2.6,4.8-5.2,4.9 C-326.6-405.8-324.5-410.1-324.5-410.1"></path> <path id="shadow--globalStyle1_x2F_animalsandobjects_x2F_plant_1_" class="st5" d="M-318.7-418.1c0.3,0.8,0.3,2,0.1,3.8 c-0.3,2.5-2,5.8-3.8,6.6c-1.4,0.6-2.6,0.8-3.5,0.5c-0.2-0.1-0.2-0.1-0.3-0.1l-0.2,0.3c0.1,0,0.2,0.1,0.3,0.1 c1,0.2,2.4,0.1,3.8-0.6c1.9-0.9,3.6-4.3,4-6.9c0.3-1.9,0.2-3.2-0.1-4c-0.1-0.3-0.2-0.5-0.3-0.5l-0.1-0.1l-0.2,0.1 c-0.1,0.1-0.1,0.1-0.2,0.2c-0.1,0.2-0.2,0.4-0.3,0.8c-0.1,0.3-0.2,0.6-0.2,1c0,0.1-0.1,0.7-0.1,0.8c-0.1,0.3-0.1,0.6-0.2,0.9 c-0.2,0.8-0.3,1.5-0.6,2.2c-0.6,1.8-1.6,3.1-3,3.8c-1.3,0.6-2.4,0.8-3.4,0.5c-0.2-0.1-0.3-0.1-0.3-0.1l-0.2,0.3 c0.1,0.1,0.2,0.1,0.4,0.2c1,0.3,2.3,0.2,3.7-0.5c1.5-0.8,2.5-2.1,3.1-4c0.2-0.7,0.4-1.4,0.6-2.3c0.1-0.3,0.1-0.6,0.2-0.9 c0-0.1,0.1-0.6,0.1-0.8c0.1-0.4,0.1-0.7,0.2-1s0.2-0.5,0.2-0.6C-318.8-418.2-318.7-418.1-318.7-418.1z"></path> <path id="_x5B_color_x5D_color--globalStyle1_x2F_animalsandobjects_x2F_plant_2_" class="st2" d="M-322-382.9 c-2.6,0-10.2,0.1-10.2,0.1c-1-9.8,0.4-25,0.9-34.1c0.2-3.9,1.7-5.6,3.9-5.6s3.5,1.8,3.9,5.6C-322.5-407.7-322-382.9-322-382.9 L-322-382.9"></path> <path id="shadow--globalStyle1_x2F_animalsandobjects_x2F_plant_2_" class="st6" d="M-325.9-416.8c0.1,1.1,0.2,2.3,0.3,4 c0,0,0.2,3.5,0.3,4.5c0.2,3.6,0.4,6.5,0.5,9.3c0.3,6.7,0.3,12.1-0.1,16.2l0.6,0.1c0.4-4.1,0.4-9.5,0.1-16.2 c-0.1-2.8-0.3-5.6-0.6-9.3c-0.1-1-0.3-4.5-0.3-4.5c-0.1-1.7-0.2-2.9-0.3-4c-0.2-2.7-0.8-4.5-2-5.5l-0.2-0.2l-0.2,0.2 c-1.3,1.1-2.2,2.9-2.3,5.5c-0.1,1.1-0.1,2.3-0.2,4c0,0.2-0.2,3.4-0.3,4.5c-0.2,3.8-0.4,6.6-0.5,9.4c-0.3,6.8-0.3,12.1,0.2,16.2 l0.6-0.1c-0.4-4.1-0.5-9.4-0.2-16.2c0.1-2.8,0.3-5.7,0.5-9.4c0.1-1,0.3-4.2,0.3-4.5c0.1-1.7,0.2-2.8,0.2-4c0.1-2.3,0.8-4,1.9-5 C-326.6-420.9-326-419.3-325.9-416.8z"></path> <polygon id="shadow--globalStyle1_x2F_animalsandobjects_x2F_plant_3_" class="st6" points="-328,-421.9 -327.8,-387.1 -327.3,-387.1 -327.3,-421.9 "></polygon> <g id="Group-17--globalStyle1_x2F_animalsandobjects_x2F_plant" transform="translate(3.000000, 35.500000)"> <polygon id="Fill-15--globalStyle1_x2F_animalsandobjects_x2F_plant" class="st7" points="-322.5,-406.3 -338.3,-406.3 -340.8,-424.9 -319.9,-424.9 "></polygon> </g> <polygon id="Fill-18--globalStyle1_x2F_animalsandobjects_x2F_plant" class="st8" points="-316.7,-384.1 -337.8,-384 -337.9,-389.5 -316.7,-389.5 "></polygon> <path id="Fill-20--globalStyle1_x2F_animalsandobjects_x2F_plant" class="st9" d="M-325.6-423.5c0-0.1,0.1-0.2,0.1-0.3 c0-0.4-0.4-0.8-0.9-0.8c-0.1,0-0.2,0-0.3,0.1c-0.2-0.3-0.5-0.4-0.8-0.4s-0.6,0.2-0.8,0.5c-0.1-0.1-0.3-0.1-0.5-0.1 c-0.5,0-0.9,0.4-0.9,0.8c0,0.1,0,0.2,0.1,0.3c-0.3,0.2-0.5,0.4-0.5,0.8s0.4,0.8,0.9,0.8l0,0l0,0l0,0h3.5c0.5,0,0.9-0.4,0.9-0.8 C-324.9-423.1-325.2-423.4-325.6-423.5"></path> <path id="Fill-22--globalStyle1_x2F_animalsandobjects_x2F_plant" class="st10" d="M-326.4-421.9c0.1-0.2,0.1-0.3,0.1-0.5 c0-0.8-0.6-1.3-1.3-1.3c-0.7,0-1.3,0.6-1.3,1.3c0,0.2,0.1,0.3,0.1,0.5H-326.4z"></path> <g id="Group-26--globalStyle1_x2F_animalsandobjects_x2F_plant" transform="translate(0.000000, 8.500000)"> <path id="Fill-24--globalStyle1_x2F_animalsandobjects_x2F_plant" class="st9" d="M-337.3-424c0-0.1,0-0.1,0-0.2 c0-0.3-0.2-0.5-0.5-0.5c-0.1,0-0.2,0-0.2,0.1c-0.1-0.2-0.3-0.3-0.5-0.3s-0.4,0.1-0.5,0.3c-0.1-0.1-0.2-0.1-0.3-0.1 c-0.3,0-0.5,0.2-0.5,0.5c0,0.1,0,0.1,0.1,0.2c-0.2,0.1-0.3,0.3-0.3,0.4c0,0.3,0.2,0.5,0.5,0.5l0,0h2.1c0.3,0,0.5-0.2,0.5-0.5 C-336.9-423.8-337.1-424-337.3-424"></path> </g> <path id="Fill-27--globalStyle1_x2F_animalsandobjects_x2F_plant" class="st10" d="M-337.5-414.6c0.1-0.1,0.1-0.2,0.1-0.3 c0-0.5-0.5-0.9-1-0.9s-1,0.4-1,0.9c0,0.1,0,0.2,0.1,0.3H-337.5z"></path> </g> </g> <g id="globalStyle1_x2F_objects_x2F_plant_x2F_1--globalStyle1_x2F_objects_x2F_plant_x2F_1"> <path id="_x5B_color:plant_x5D_plant--globalStyle1_x2F_objects_x2F_plant_x2F_1" class="st11" d="M-275.8-317.5 c1.9-19.2-10.2-28.3-36.3-27.2C-305.4-323.9-293.3-314.8-275.8-317.5z"></path> <g id="Group--globalStyle1_x2F_objects_x2F_plant_x2F_1" transform="translate(37.062000, 4.216000)"> <path id="Path-38-Copy-2--globalStyle1_x2F_objects_x2F_plant_x2F_1" class="st12" d="M-322.8-375.8l-0.4-4.2l3.7,25.4 c3.1,19.9,5.3,33.2,6.4,40.2c1.6,10.4,4.5,26.2,4.9,29.7c0.3,2.3,1.8,13.3,4.7,32.8l-0.6,0.1c-2.2-16.6-3.8-27.9-4.7-33.7 c-1.4-8.7-3.5-22.3-5-31.6c-1.5-9.4-5.2-33.1-6.7-42.5C-321.5-366-322.3-371.4-322.8-375.8z"></path> <path id="Path-38-Copy-4--globalStyle1_x2F_objects_x2F_plant_x2F_1" class="st12" d="M-338.2-352.4l-0.4-4l7.1,22.5 c6.3,17.4,10.6,29.1,12.8,35.2c3.3,9.1,9.3,22.6,10,25.8c0.3,1.6,2,7.5,5.2,17.8c1,3.4-0.4,3.9-1.4,0.4 c-2.4-8.6-4.2-14.7-5.6-18.3c-2.8-7.7-6.9-19.6-10.1-27.7s-10.6-29-13.6-37.2C-336.1-343.5-337.5-348.3-338.2-352.4z"></path> <path id="Path-38-Copy-5--globalStyle1_x2F_objects_x2F_plant_x2F_1" class="st12" d="M-339.2-393.4l-1.5-3.7l4.3,23.2 c2.6,18.3,4.3,30.7,5.3,37.1c1.4,9.6,2.4,24.4,3.4,27.5c0.5,1.6,1.7,7.6,3.8,18.1c0.7,3.5,2.2,3.3,1.4-0.3 c-1.9-8.7-3.2-15-3.7-18.8c-1.1-8.1-3.1-20.5-4.1-29.2s-4.3-30.5-5.6-39.2C-336.8-384.5-337.9-389.4-339.2-393.4z"></path> <path id="Path-38-Copy-3--globalStyle1_x2F_objects_x2F_plant_x2F_1" class="st12" d="M-332.3-419.9l-1.2-4.6l1.2,28.6 c0,22.4,0,37.5,0,45.3c0,11.7-1.2,29.6-0.6,33.5c0.4,2.6,1.1,14.9,2.1,36.9h2.1c-1.6-18.7-2.4-31.3-2.4-37.9 c0-9.9-0.3-25.1,0-35.7s0-37.3,0-47.9C-331.1-408.8-331.5-414.9-332.3-419.9z"></path> </g> <path id="shadow--globalStyle1_x2F_objects_x2F_plant_x2F_1" class="st6" d="M-275.8-317.5c1.9-19.2-10.2-28.3-36.3-27.2 C-305.4-323.9-293.3-314.8-275.8-317.5z"></path> <path id="Path-12--globalStyle1_x2F_objects_x2F_plant_x2F_1" class="st13" d="M-273.9-312.9c-5.5-11-18.2-20.6-38.3-31.6 l0.2-0.4c20.2,11,33,20.7,38.5,31.8L-273.9-312.9z"></path> <path id="_x5B_color:plant_x5D_plant--globalStyle1_x2F_objects_x2F_plant_x2F_1_1_" class="st11" d="M-266.8-368.1 c-1.8-13.8-11.9-18.2-30.2-13.3C-288.8-367.8-278.7-363.3-266.8-368.1z"></path> <path id="shadow--globalStyle1_x2F_objects_x2F_plant_x2F_1_1_" class="st6" d="M-266.8-368.1c-1.8-13.8-11.9-18.2-30.2-13.3 C-288.8-367.8-278.7-363.3-266.8-368.1z"></path> <path id="Path-12--globalStyle1_x2F_objects_x2F_plant_x2F_1_1_" class="st13" d="M-264.6-365.1c-5.6-6.8-16.2-11.6-32.2-16 l0.1-0.4c16.1,4.5,26.7,9.3,32.5,16.2L-264.6-365.1z"></path> <path id="_x5B_color:plant_x5D_plant--globalStyle1_x2F_objects_x2F_plant_x2F_1_2_" class="st11" d="M-271-346.7 c3.5-15.8-5.6-24.6-27.4-26.3C-295-355-285.9-346.3-271-346.7z"></path> <path id="shadow--globalStyle1_x2F_objects_x2F_plant_x2F_1_2_" class="st6" d="M-271-346.7c3.5-15.8-5.6-24.6-27.4-26.3 C-295-355-285.9-346.3-271-346.7z"></path> <path id="Path-12-Copy--globalStyle1_x2F_objects_x2F_plant_x2F_1" class="st13" d="M-269.8-342.4c-3.4-9.7-12.9-19-28.4-30.1 l0.3-0.4c15.6,11.2,25.2,20.5,28.6,30.3L-269.8-342.4z"></path> <path id="_x5B_color:plant_x5D_plant--globalStyle1_x2F_objects_x2F_plant_x2F_1_3_" class="st11" d="M-260-364.8 c-3.5-15.8,5.6-24.6,27.4-26.3C-236.1-373.1-245.2-364.3-260-364.8z"></path> <path id="Path-12-Copy--globalStyle1_x2F_objects_x2F_plant_x2F_1_1_" class="st13" d="M-261.2-360.5c3.4-9.7,12.9-19,28.4-30.1 l-0.3-0.4c-15.6,11.2-25.2,20.5-28.6,30.3L-261.2-360.5z"></path> <path id="_x5B_color:plant_x5D_plant--globalStyle1_x2F_objects_x2F_plant_x2F_1_4_" class="st11" d="M-266.4-329.8 c-0.6-14,8.5-20.1,27.4-18.4C-244.7-333.3-253.8-327.2-266.4-329.8z"></path> <path id="Path-12-Copy--globalStyle1_x2F_objects_x2F_plant_x2F_1_2_" class="st13" d="M-268.1-326.3 c4.3-7.8,13.9-14.3,28.9-21.5l-0.2-0.4c-15.1,7.2-24.7,13.8-29.1,21.6L-268.1-326.3z"></path> <path id="_x5B_color:plant_x5D_plant--globalStyle1_x2F_objects_x2F_plant_x2F_1_5_" class="st11" d="M-292.3-341.3 c1.3-21.4,16.2-29.3,44.7-23.6C-258.6-343.1-273.5-335.3-292.3-341.3z"></path> <path id="Path-12--globalStyle1_x2F_objects_x2F_plant_x2F_1_2_" class="st13" d="M-295.4-336.5c7.9-11.1,23.6-19.5,47.7-28.1 l-0.1-0.4c-24.2,8.5-39.9,17-47.9,28.2L-295.4-336.5z"></path> <path id="_x5B_color:plant_x5D_plant--globalStyle1_x2F_objects_x2F_plant_x2F_1_6_" class="st11" d="M-298.3-320.2 c1.2-22.2-12.7-32.2-41.7-30.1C-331.8-327.4-317.9-317.3-298.3-320.2z"></path> <path id="shadow--globalStyle1_x2F_objects_x2F_plant_x2F_1_3_" class="st6" d="M-298.3-320.2c1.2-22.2-12.7-32.2-41.7-30.1 C-331.8-327.4-317.9-317.3-298.3-320.2z"></path> <path id="Path-12--globalStyle1_x2F_objects_x2F_plant_x2F_1_3_" class="st13" d="M-295.9-316.2c-6.5-12-21.1-22.3-43.9-33.7 l0.2-0.4c22.9,11.4,37.5,21.8,44.1,33.9L-295.9-316.2z"></path> <path id="_x5B_color:plant_x5D_plant--globalStyle1_x2F_objects_x2F_plant_x2F_1_7_" class="st11" d="M-293.4-398.4 c4.4-14.9,16.3-18,35.6-9.4C-269.1-394.2-281-391.1-293.4-398.4z"></path> <path id="shadow--globalStyle1_x2F_objects_x2F_plant_x2F_1_4_" class="st6" d="M-293.4-398.4c4.4-14.9,16.3-18,35.6-9.4 C-269.1-394.2-281-391.1-293.4-398.4z"></path> <path id="Path-12--globalStyle1_x2F_objects_x2F_plant_x2F_1_4_" class="st14" d="M-296.4-395.7c8.8-7.8,25-10.6,38.4-12.1"></path> <path id="_x5B_color:plant_x5D_plant--globalStyle1_x2F_objects_x2F_plant_x2F_1_8_" class="st11" d="M-292.5-374.2 c-1.1-18,10.5-26,34.7-24.2C-264.6-379.1-276.2-371.1-292.5-374.2z"></path> <path id="Path-12-Copy--globalStyle1_x2F_objects_x2F_plant_x2F_1_3_" class="st13" d="M-294.6-369.6c5.4-10,17.5-18.7,36.6-28.2 l-0.2-0.4c-19.1,9.6-31.3,18.2-36.8,28.4L-294.6-369.6z"></path> <path id="_x5B_color:plant_x5D_plant--globalStyle1_x2F_objects_x2F_plant_x2F_1_9_" class="st11" d="M-296.9-400.1 c1.1-18-10.5-26-34.7-24.2C-324.7-405.1-313.1-397.1-296.9-400.1z"></path> <path id="_x5B_color:plant_x5D_plant--globalStyle1_x2F_objects_x2F_plant_x2F_1_10_" class="st11" d="M-302.6-381.4 c0.7-10.8-6.2-15.6-20.8-14.5C-319.2-384.4-312.3-379.6-302.6-381.4z"></path> <path id="shadow--globalStyle1_x2F_objects_x2F_plant_x2F_1_5_" class="st6" d="M-302.6-381.4c0.7-10.8-6.2-15.6-20.8-14.5 C-319.2-384.4-312.3-379.6-302.6-381.4z"></path> <path id="Path-12-Copy--globalStyle1_x2F_objects_x2F_plant_x2F_1_4_" class="st13" d="M-295-395.7c-5.4-10-17.5-18.7-36.6-28.2 l0.2-0.4c19.1,9.6,31.3,18.2,36.8,28.4L-295-395.7z"></path> <path id="Path-12-Copy-2--globalStyle1_x2F_objects_x2F_plant_x2F_1" class="st13" d="M-300.4-377.4c-1.3-2.4-2.3-4.1-3.5-5.2 c-2.3-2.3-5.3-4.5-9.3-7.1c-2.9-1.9-6.2-3.7-10-5.6l0.2-0.4c3.9,1.9,7.1,3.7,10.1,5.6c4,2.6,7.1,4.8,9.4,7.1 c1.2,1.2,2.3,2.9,3.6,5.3L-300.4-377.4z"></path> <path id="_x5B_color:plant_x5D_plant--globalStyle1_x2F_objects_x2F_plant_x2F_1_11_" class="st11" d="M-297.5-360.4 c-1.5-15.5-12.5-20.8-33.1-16C-322-360.9-311-355.6-297.5-360.4z"></path> <path id="Path-12-Copy--globalStyle1_x2F_objects_x2F_plant_x2F_1_5_" class="st13" d="M-294.9-357.2c-6.2-7.9-18.6-13.9-35.6-19 c-0.1,0-0.2-0.2-0.2-0.3s0.2-0.2,0.3-0.2c17,5.1,29.5,11.2,35.8,19.1c0.1,0.1,0.1,0.2,0,0.3C-294.7-357-294.8-357.1-294.9-357.2z "></path> <path id="_x5B_color:plant_x5D_plant--globalStyle1_x2F_objects_x2F_plant_x2F_1_12_" class="st11" d="M-292.2-312 c1.8-15.4,12.9-20.6,33.4-15.4C-267.6-312.1-278.7-306.9-292.2-312z"></path> <path id="Path-12-Copy--globalStyle1_x2F_objects_x2F_plant_x2F_1_6_" class="st13" d="M-294.6-308.5 c6.1-7.8,17.8-13.3,35.6-18.6l-0.1-0.4c-17.8,5.3-29.6,10.9-35.8,18.7L-294.6-308.5z"></path> <polygon id="Rectangle-Copy-20--globalStyle1_x2F_objects_x2F_plant_x2F_1" class="st0" points="-307.2,-297 -262.6,-297 -266,-244.2 -303.8,-244.2 "></polygon> <polygon id="Rectangle-Copy-21--globalStyle1_x2F_objects_x2F_plant_x2F_1" class="st1" points="-309.7,-288.2 -260.1,-288.2 -260.1,-305.1 -309.7,-305.1 "></polygon> </g> <g id="globalStyle1_x2F_woman_x2F_womansitting1_x2F_chair_x2F_1--globalStyle1_x2F_woman_x2F_womansitting1_x2F_chair_x2F_1" transform="translate(61.000000, 30.000000)"> <polygon id="Path-200--globalStyle1_x2F_woman_x2F_womansitting1_x2F_chair_x2F_1" class="st15" points="-325.7,-261.4 -322.4,-243.5 -314.6,-243.5 -312.1,-262.5 "></polygon> <polygon id="Path-200-Copy--globalStyle1_x2F_woman_x2F_womansitting1_x2F_chair_x2F_1" class="st15" points="-203.5,-261.4 -200.1,-243.5 -192.3,-243.5 -189.9,-262.5 "></polygon> <rect id="_x5B_chair_x5D_chair--globalStyle1_x2F_woman_x2F_womansitting1_x2F_chair_x2F_1" x="-340.8" y="-295.5" class="st16" width="165.5" height="35.7"></rect> <rect id="_x5B_chair_x5D_chair--globalStyle1_x2F_woman_x2F_womansitting1_x2F_chair_x2F_1_1_" x="-321.7" y="-335.4" class="st16" width="153.1" height="34"></rect> <path id="_x5B_chair_x5D_chair--globalStyle1_x2F_woman_x2F_womansitting1_x2F_chair_x2F_1_2_" class="st16" d="M-337.2-406.2 h22.4c2,0,3.6,1.6,3.6,3.6v87.8c0,2-1.6,3.6-3.6,3.6h-22.4c-2,0-3.6-1.6-3.6-3.6v-87.8C-340.8-404.6-339.2-406.2-337.2-406.2z"></path> <path id="_x5B_chair_x5D_chair--globalStyle1_x2F_woman_x2F_womansitting1_x2F_chair_x2F_1_3_" class="st16" d="M-301.4-425h9 c5.4,0,9.9,4.4,9.9,9.9v85.1c0,5.4-4.4,9.9-9.9,9.9h-9c-5.4,0-9.9-4.4-9.9-9.9v-85.1C-311.2-420.6-306.8-425-301.4-425z"></path> <path id="_x5B_chair_x5D_chair--globalStyle1_x2F_woman_x2F_womansitting1_x2F_chair_x2F_1_4_" class="st17" d="M-330.9-372.6 c44.5,0,93.1,0,145.8,0c5.4,0,9.9,5.1,9.9,11.4v55.2c0,6.3-4.4,11.4-9.9,11.4h-145.8c-5.4,0-9.9-5.1-9.9-11.4v-55.2 C-340.8-368.8-337.5-372.6-330.9-372.6z"></path> </g> </g> <g id="Group_2_" transform="translate(221.000000, 0.000000)"> <g id="globalStyle1_x2F_wallclinic_x2F_2--globalStyle1_x2F_wallclinic_x2F_2"> <rect id="shadow--globalStyle1_x2F_wallclinic_x2F_2" x="-340.6" y="-425" class="st18" width="313.3" height="154"></rect> <path id="shadow--globalStyle1_x2F_wallclinic_x2F_2_1_" class="st18" d="M-231.4-389.1v19.3h-54.9v-19.3H-231.4z M-294.5-385v15 h-21.4v-15H-294.5z M-200.6-393.1v23.1h-26.5v-23.1H-200.6z"></path> <path id="Rectangle-2--globalStyle1_x2F_wallclinic_x2F_2" class="st19" d="M-196.7-370.1v94.3h-123.2v-94.3L-196.7-370.1 L-196.7-370.1z M-112-410.3v133.4h-51.9v-116.6L-112-410.3z"></path> <polygon id="Path-499--globalStyle1_x2F_wallclinic_x2F_2" class="st20" points="-112,-410.3 -36.9,-410.3 -36.9,-277.7 -112,-277.7 "></polygon> <path id="Combined-Shape--globalStyle1_x2F_wallclinic_x2F_2" class="st21" d="M-294.5-287.3v9.6h-21.4v-9.6H-294.5z M-264.8-287.3v9.6h-21.4v-9.6H-264.8z M-231.6-287.3v9.6H-253v-9.6H-231.6z M-200.6-287.3v9.6H-222v-9.6H-200.6z M-85.1-294.1 v9.6h-21.4v-9.6H-85.1z M-37-294.1v9.6h-21.4v-9.6H-37z M-294.5-312.4v9.6h-21.4v-9.6H-294.5z M-264.8-312.4v9.6h-21.4v-9.6 H-264.8z M-231.6-312.4v9.6H-253v-9.6H-231.6z M-200.6-312.4v9.6H-222v-9.6H-200.6z M-85.1-319.1v9.6h-21.4v-9.6H-85.1z M-37-319.1v9.6h-21.4v-9.6H-37z M-294.5-337.4v9.6h-21.4v-9.6H-294.5z M-264.8-337.4v9.6h-21.4v-9.6H-264.8z M-231.6-337.4v9.6 H-253v-9.6H-231.6z M-200.6-337.4v9.6H-222v-9.6H-200.6z M-85.1-344.1v9.6h-21.4v-9.6H-85.1z M-37-344.1v9.6h-21.4v-9.6H-37z M-294.5-362.4v9.6h-21.4v-9.6H-294.5z M-264.8-362.4v9.6h-21.4v-9.6H-264.8z M-231.6-362.4v9.6H-253v-9.6H-231.6z M-200.6-362.4 v9.6H-222v-9.6H-200.6z M-85.1-369.2v9.6h-21.4v-9.6H-85.1z M-37-369.2v9.6h-21.4v-9.6H-37z M-85.1-394.2v9.6h-21.4v-9.6H-85.1z M-37-394.2v9.6h-21.4v-9.6H-37z"></path> <path id="_x5B_color:objects_x5D_window--globalStyle1_x2F_wallclinic_x2F_2" class="st22" d="M-340.6-425h313.3v11.5l0,0v135.7 l0,0v6.7h-313.3V-425z M-186.3-345.1H-331v67.4h144.6L-186.3-345.1C-186.4-345.1-186.3-345.1-186.3-345.1z M-36.9-345.1h-144.6 v67.4h144.6L-36.9-345.1L-36.9-345.1z M-36.9-413.4h-144.6v61.6h144.6L-36.9-413.4L-36.9-413.4z M-186.3-413.4H-331v61.6h144.6 L-186.3-413.4L-186.3-413.4z"></path> </g> </g> <g id="Group_3_" transform="translate(293.737212, 108.661360)"> <g id="Symbols--globalStyle1_x2F_peoplechair_x2F_womansitting_x2F_head_x2F_9"> <g id="Group-2--globalStyle1_x2F_peoplechair_x2F_womansitting_x2F_head_x2F_9" transform="translate(0.396071, 0.000000)"> <path id="_x5B_hair_x5D_hair--globalStyle1_x2F_peoplechair_x2F_womansitting_x2F_head_x2F_9" class="st23" d="M-263.3-364.5 c-6.2,40.3-23.8,58.8-34.8,46.5c-0.3-0.3-10.8-20.9-2.6-60c4.8-22.7,9.2-32.1,23.9-32.1C-261.5-410.1-261.5-376.2-263.3-364.5z"></path> <path id="shadow--globalStyle1_x2F_peoplechair_x2F_womansitting_x2F_head_x2F_9" class="st24" d="M-263.3-364.5 c-6.2,40.3-23.8,58.8-34.8,46.5c-0.3-0.3-10.8-20.9-2.6-60c4.8-22.7,9.2-32.1,23.9-32.1C-261.5-410.1-261.5-376.2-263.3-364.5z"></path> <polygon id="_x5B_skin_x5D_skin--globalStyle1_x2F_peoplechair_x2F_womansitting_x2F_head_x2F_9" class="st25" points=" -306.4,-350.6 -286,-401.4 -275.6,-393 -282.8,-350.6 "></polygon> <polygon id="shadow--globalStyle1_x2F_peoplechair_x2F_womansitting_x2F_head_x2F_9_1_" class="st18" points="-306.4,-350.6 -286,-401.4 -275.6,-393 -282.8,-350.6 "></polygon> <ellipse id="_x5B_skin_x5D_skin--globalStyle1_x2F_peoplechair_x2F_womansitting_x2F_head_x2F_9_1_" transform="matrix(0.9781 -0.2079 0.2079 0.9781 77.2669 -66.0092)" class="st25" cx="-275.4" cy="-400.6" rx="9.2" ry="15.7"></ellipse> <path id="smile--globalStyle1_x2F_peoplechair_x2F_womansitting_x2F_head_x2F_9" class="st26" d="M-270.7-390.8 c0.6,0,1.9-0.3,2-1.8l-3.7-0.3C-272.5-391.4-271.3-390.8-270.7-390.8z"></path> <g id="Group--globalStyle1_x2F_peoplechair_x2F_womansitting_x2F_head_x2F_9" transform="translate(66.344306, 31.988892) rotate(17.000000) translate(-66.344306, -31.988892) translate(55.344306, 23.488892)"> <path id="Path-212--globalStyle1_x2F_peoplechair_x2F_womansitting_x2F_head_x2F_9" class="st26" d="M-432-305.5l-0.8-0.5 c-2.6,0.2-4.9,1-7.1,2.6c-2.1,1.5-4,3.1-5.7,4.9c0,0-0.1,0.1-0.2,0.2l0.5,4.7c1.4,1,3.4,1.7,5.9,2.2c3.8,0.8,7.7-0.4,8.5-3.1 C-430.4-296.4-430.8-300-432-305.5z"></path> <path id="Path-209--globalStyle1_x2F_peoplechair_x2F_womansitting_x2F_head_x2F_9" class="st27" d="M-432-305.5 c-1.5-0.1-3.3,0.2-5.3,1.2c-2,0.9-4.7,3.1-8,6.5l0.5,3.4c3.2,2.1,6.4,3,9.5,2.6c4.3-0.5,6-3,6.1-6.6c0-0.1-0.2-0.1-0.2-0.1 c0-0.3,0-1.9,0-2.1c0-0.9-0.5-1.6-0.8-2.3c0,0-0.1,0-0.4-0.1c-0.1-0.6-0.2-1-0.2-1C-431.3-304.4-431.6-304.9-432-305.5z"></path> <path id="Path-210--globalStyle1_x2F_peoplechair_x2F_womansitting_x2F_head_x2F_9" class="st28" d="M-434.8-303.1 c-1.4,0.8-4.1,2.6-8,5.4c4.2-2.7,7.1-4.2,8.5-4.7c1.4-0.4,2.4-0.7,3.5-0.8l-0.2-1C-432.3-304.1-433.6-303.8-434.8-303.1z"></path> <path id="Path-210-Copy--globalStyle1_x2F_peoplechair_x2F_womansitting_x2F_head_x2F_9" class="st28" d="M-433.2-293.1 c-1.6,0-4.3-0.1-8.3-0.3c4.2-0.1,7-0.3,8.5-0.6c1.1-0.3,2-0.6,2.9-0.9c0,0-0.2,0.4-0.5,0.8c-0.2,0.3-0.6,0.7-0.7,0.7 C-432-293.3-432.5-293.1-433.2-293.1z"></path> <path id="Path-211--globalStyle1_x2F_peoplechair_x2F_womansitting_x2F_head_x2F_9" class="st28" d="M-429.6-298.5 c-0.9-0.2-2.9-0.5-5.2,0.1c-2.4,0.7-4.7,1.4-6.7,2.2c5-2.9,8.2-4.5,9.5-4.6c1.2-0.1,2-0.1,2.4,0.1 C-429.5-300.7-429.6-298.5-429.6-298.5z"></path> <polygon id="Path-213--globalStyle1_x2F_peoplechair_x2F_womansitting_x2F_head_x2F_9" class="st26" points="-445.5,-296.8 -449.4,-299.4 -449.6,-298.7 -445.4,-295.9 "></polygon> </g> <path id="_x5B_hair_x5D_hair--globalStyle1_x2F_peoplechair_x2F_womansitting_x2F_head_x2F_9_1_" class="st23" d="M-303.8-338.9 c-2.1,29.5-30.6,62.8-36.8,8.5c-2.7-23.7,12.2-38.1,26.1-57.8c7.9-11.1,11-18.5,14.6-25.2c5.6-10.5,14.1-17.2,31.2-5.1 c4.7,3.3,2.2,6.1-7.3,8.2c-0.3,1.4-3.1,1.7-4.8,6.8c-0.3,0.5-4.7,12.9-13.1,25.6C-303.6-363.2-303.6-342.2-303.8-338.9z"></path> </g> </g> <g id="globalStyle1_x2F_peoplechair_x2F_womansitting_x2F_bottom_x2F_2--globalStyle1_x2F_peoplechair_x2F_womansitting_x2F_bottom_x2F_2" transform="translate(16.129589, 147.854564)"> <path id="_x5B_skin_x5D_skin--globalStyle1_x2F_peoplechair_x2F_womansitting_x2F_bottom_x2F_2" class="st25" d="M-189.4-397.7 l-15.1,108c-4-0.6-7.3-1.1-7.3-1.1s4.2-90.8,4.5-107.4C-207.3-398.1-203.2-398.1-189.4-397.7"></path> <path id="shadow--globalStyle1_x2F_peoplechair_x2F_womansitting_x2F_bottom_x2F_2" class="st18" d="M-189.4-397.7l-15.1,108 c-4-0.6-7.3-1.1-7.3-1.1s4.2-90.8,4.5-107.4C-207.3-398.1-203.2-398.1-189.4-397.7"></path> <path id="shape--globalStyle1_x2F_peoplechair_x2F_womansitting_x2F_bottom_x2F_2" class="st29" d="M-212.7-299.5l0.5,16.1h27.3 c-0.1-1.7-0.2-2.6-3.5-2.7c-4.9-0.1-16.1,0.8-16.1-3.9c0-1-0.2,1.4,2.3-9.5H-212.7L-212.7-299.5z"></path> <path id="shadow--globalStyle1_x2F_peoplechair_x2F_womansitting_x2F_bottom_x2F_2_1_" class="st18" d="M-212.7-299.5l0.5,16.1 h27.3c-0.1-1.7-0.2-2.6-3.5-2.7c-4.9-0.1-16.1,0.8-16.1-3.9c0-1-0.2,1.4,2.3-9.5H-212.7L-212.7-299.5z"></path> <path id="_x5B_clothes_x5D_clothes--globalStyle1_x2F_peoplechair_x2F_womansitting_x2F_bottom_x2F_2" class="st30" d=" M-212.7-281.6h27.8v-1.8c-9.6,0-9.6,0-27.8,0V-281.6z"></path> <path id="_x5B_skin_x5D_skin--globalStyle1_x2F_peoplechair_x2F_womansitting_x2F_bottom_x2F_2_1_" class="st25" d=" M-154.5-292.2c-3.4,1.5-5.7,2.5-5.7,2.5s-50.2-85.6-55.2-102.3c0,0,3.7-1.6,17.7-9.8L-154.5-292.2z"></path> <path id="shape--globalStyle1_x2F_peoplechair_x2F_womansitting_x2F_bottom_x2F_2_1_" class="st29" d="M-167.9-298.6l9.8,15.2 h27.9c-0.1-1.7-0.2-2.6-3.6-2.7c-5-0.1-15-0.3-18.4-3.7c-2.1-2.1-2.3-2.7-4.1-8.8H-167.9z"></path> <path id="_x5B_clothes_x5D_clothes--globalStyle1_x2F_peoplechair_x2F_womansitting_x2F_bottom_x2F_2_1_" class="st30" d=" M-158.1-281.6h27.8v-1.8c0,0-9.6,0-27.8,0V-281.6z"></path> <g id="_x5B_clothes_x5D_clothes--globalStyle1_x2F_peoplechair_x2F_womansitting_x2F_bottom_x2F_2_2_" transform="translate(18.817854, 3.584353)"> <path id="path-1--globalStyle1_x2F_peoplechair_x2F_womansitting_x2F_bottom_x2F_2" class="st30" d="M-219-423.2 c10.9,0,19.7,8.8,19.7,19.7c0,0.8-0.1,1.7-0.2,2.5l-4.2,67.5h-43.2l5.7-49.1c-40.8,1.9-76.8,2.9-80,2.7 c-7.7-0.5-14.9-6.2-18.3-15.7c-2.8-7.9-1.7-17.2,3.4-23.7C-328.5-429-219.5-423.3-219-423.2z"></path> </g> <g id="Stroke-19--globalStyle1_x2F_peoplechair_x2F_womansitting_x2F_bottom_x2F_2-Clipped" transform="translate(18.817854, 3.584353)"> <g id="path-1--globalStyle1_x2F_peoplechair_x2F_womansitting_x2F_bottom_x2F_2_1_"> </g> <path id="Stroke-19--globalStyle1_x2F_peoplechair_x2F_womansitting_x2F_bottom_x2F_2" class="st31" d="M-245.3-346.1h37.4 c0.3,0,0.6-0.2,0.6-0.4c0-0.2-0.3-0.4-0.6-0.4h-37.4c-0.3,0-0.6,0.2-0.6,0.4S-245.6-346.1-245.3-346.1z"></path> </g> <path id="shadow--globalStyle1_x2F_peoplechair_x2F_womansitting_x2F_bottom_x2F_2_2_" class="st18" d="M-200.2-419.6 c10.9,0,19.7,8.8,19.7,19.7c0,0.8-0.1,1.7-0.2,2.5l-4.2,67.5h-43.2l5.7-49.1c-40.8,1.9-76.8,2.9-80,2.7 c-7.7-0.5-14.9-6.2-18.3-15.7c-2.8-7.9-1.7-17.2,3.4-23.7C-309.6-425.5-200.7-419.7-200.2-419.6z"></path> <g id="_x5B_clothes_x5D_clothes--globalStyle1_x2F_peoplechair_x2F_womansitting_x2F_bottom_x2F_2_3_"> <path id="path-3--globalStyle1_x2F_peoplechair_x2F_womansitting_x2F_bottom_x2F_2" class="st30" d="M-272.8-418.8 c36.6,2.2,65.7,2.2,66.3,2.2l0,0c9.2,0,17,6.3,19.1,14.8l38.3,71.7l-48.5,0.1l-20.2-46.9c-47.3,2.2-102.5,1.7-105.9,1.5 c-7.7-0.5-12.4-5.9-15.8-15.4c-2.8-7.9,0.6-22.3,5.7-28.8C-326.2-429.3-302.4-420.6-272.8-418.8z"></path> </g> <g id="Stroke-28--globalStyle1_x2F_peoplechair_x2F_womansitting_x2F_bottom_x2F_2-Clipped"> <g id="path-3--globalStyle1_x2F_peoplechair_x2F_womansitting_x2F_bottom_x2F_2_1_"> </g> <polygon id="Stroke-28--globalStyle1_x2F_peoplechair_x2F_womansitting_x2F_bottom_x2F_2" class="st31" points="-203.8,-342.5 -155.4,-342.6 -155.4,-343.4 -203.8,-343.4 "></polygon> </g> </g> <g id="Symbols--globalStyle1_x2F_peoplechair_x2F_womansitting_x2F_top_x2F_3" transform="translate(11.649147, 57.349649)"> <g id="globalStyle1_x2F_peoplechair_x2F_womansitting_x2F_top_x2F_3--globalStyle1_x2F_peoplechair_x2F_womansitting_x2F_top_x2F_3"> <path id="_x5B_skin_x5D_hand--globalStyle1_x2F_peoplechair_x2F_womansitting_x2F_top_x2F_3" class="st25" d="M-264-409.7 c0.3,3.9,1.3,39.7,1.6,50.5c7,1.7,19.3,5,37.9,9.7l0,0l5.9-1.4l4.8-1.6l5.5,0.8c0.4,0.1,0.4,0.3,0.3,0.3 c-1.4,0.5-2.6,0.6-4.2,0.4c-1.4,1-2.9,0.7-2,2c0.1,0.1,2.9,0.3,5.6-0.3c0.4-0.1,2.3-0.3,2.5-0.4c1.3-0.3,1.5-0.4,2.4-0.7 c0.3-0.1,0.7-0.1,1.2,0c0.1,0,0.1,0,0.2,0.1c0.1,0.1,0.1,0.3,0,0.3c-0.3,0.2-0.7,0.4-1.1,0.6c-0.6,0.3-2.5,0.9-4.2,1.3 c-1.1,0.2-2.6,0.6-2.7,0.7c-0.2,0.1,2.1-0.2,4-0.3c1.9-0.1,2.9-1,4.4-1.6c0.2-0.1,0.6-0.1,1.3-0.1c0,0,0.4,0.1,0.3,0.3 c-0.1,0.2-1.7,1.3-2.7,1.8c-1.7,0.8-2.1,0.9-3,1c-1.1,0.1-3.1,0.4-3.6,0.5s2.6,0.1,4.7-0.3c0.3-0.1,1-0.3,1.3-0.4 c0.9-0.3,2.1-1,2.6-0.9c0.1,0,0.1,0,0.2,0.1c0.3,0.1,0.4,0.4,0.2,0.6c-0.5,0.4-1.4,0.9-2.5,1.4c-0.3,0.1-1.3,0.5-1.8,0.6 c-1.8,0.3-4,0.2-4.2,0.3s1.1,0,2.7-0.1c0.4,0,1.8-0.2,2.1-0.2c0.4,0,0.6-0.1,1.2-0.2c1.2-0.2,1.5,0.3,0.9,0.6 c-0.6,0.4-6.1,1.4-8.5,1.5c-1.4,0.1-4,0.5-7.4,0.2l-6.7-1.1h-0.1c-0.2,0-0.4,0-0.6-0.1h-0.4c-23.4,0.4-40.6,0.6-46.7-3.3l0,0 c-0.8-0.5-1.5-1.1-2.1-1.8c-0.1-0.1-0.1-0.2-0.2-0.3c-0.8-1-1.2-2.1-1.4-3.2c-3.8-12.4-5.8-47.8-6.5-56.6 C-282.6-408.9-270.7-409.2-264-409.7z"></path> <path id="shadow--globalStyle1_x2F_peoplechair_x2F_womansitting_x2F_top_x2F_3" class="st18" d="M-264-409.7 c0.3,3.9,1.3,39.7,1.6,50.5c7,1.7,19.3,5,37.9,9.7l0,0l5.9-1.4l4.8-1.6l5.5,0.8c0.4,0.1,0.4,0.3,0.3,0.3 c-1.4,0.5-2.6,0.6-4.2,0.4c-1.4,1-2.9,0.7-2,2c0.1,0.1,2.9,0.3,5.6-0.3c0.4-0.1,2.3-0.3,2.5-0.4c1.3-0.3,1.5-0.4,2.4-0.7 c0.3-0.1,0.7-0.1,1.2,0c0.1,0,0.1,0,0.2,0.1c0.1,0.1,0.1,0.3,0,0.3c-0.3,0.2-0.7,0.4-1.1,0.6c-0.6,0.3-2.5,0.9-4.2,1.3 c-1.1,0.2-2.6,0.6-2.7,0.7c-0.2,0.1,2.1-0.2,4-0.3c1.9-0.1,2.9-1,4.4-1.6c0.2-0.1,0.6-0.1,1.3-0.1c0,0,0.4,0.1,0.3,0.3 c-0.1,0.2-1.7,1.3-2.7,1.8c-1.7,0.8-2.1,0.9-3,1c-1.1,0.1-3.1,0.4-3.6,0.5s2.6,0.1,4.7-0.3c0.3-0.1,1-0.3,1.3-0.4 c0.9-0.3,2.1-1,2.6-0.9c0.1,0,0.1,0,0.2,0.1c0.3,0.1,0.4,0.4,0.2,0.6c-0.5,0.4-1.4,0.9-2.5,1.4c-0.3,0.1-1.3,0.5-1.8,0.6 c-1.8,0.3-4,0.2-4.2,0.3s1.1,0,2.7-0.1c0.4,0,1.8-0.2,2.1-0.2c0.4,0,0.6-0.1,1.2-0.2c1.2-0.2,1.5,0.3,0.9,0.6 c-0.6,0.4-6.1,1.4-8.5,1.5c-1.4,0.1-4,0.5-7.4,0.2l-6.7-1.1h-0.1c-0.2,0-0.4,0-0.6-0.1h-0.4c-23.4,0.4-40.6,0.6-46.7-3.3l0,0 c-0.8-0.5-1.5-1.1-2.1-1.8c-0.1-0.1-0.1-0.2-0.2-0.3c-0.8-1-1.2-2.1-1.4-3.2c-3.8-12.4-5.8-47.8-6.5-56.6 C-282.6-408.9-270.7-409.2-264-409.7z"></path> <path id="_x5B_clothes_x5D_tshirt--globalStyle1_x2F_peoplechair_x2F_womansitting_x2F_top_x2F_3" class="st32" d=" M-287.9-388.2h26.8c-0.2-12.3-1.2-20.4-2.8-24.2c-2.5-5.7-15.3-5.7-19.9-1.1C-287-410.5-288.3-402-287.9-388.2z"></path> <path id="_x5B_clothes_x5D_tshirt--globalStyle1_x2F_peoplechair_x2F_womansitting_x2F_top_x2F_3_1_" class="st32" d=" M-309.9-425c-22.8,0-30.7,19.4-30.7,46.8c0,7.1-1.3,49.2,1.5,53.9c10.5,17.5,67.9,12.4,70.2,0c0.8-4.6,0.4,7-1.4-65.8 c4.9-13.3,7.1-20.9,6.3-22.6c-3.6-8.5-19.3-11.3-25.9-12.3c0-0.2-5.4,4.1-7.1,4.1C-298.3-421.6-308.1-425-309.9-425z"></path> <path id="_x5B_skin_x5D_hand--globalStyle1_x2F_peoplechair_x2F_womansitting_x2F_top_x2F_3_1_" class="st25" d="M-311.5-408.8 v51.3c4.2,3.7,11.5,12.6,32.5,25.5l0,0l5.8,0.7l5.1,0.2l4.8,2.7c0.4,0.2,0.3,0.4,0.2,0.4c-1.5,0-2.7-0.4-4.1-1.2 c-1.6,0.4-2.9-0.4-2.5,1.1c0,0.2,2.6,1.3,5.4,1.8c0.4,0.1,2.3,0.5,2.5,0.6c1.3,0.3,1.6,0.2,2.5,0.2c0.3,0,0.7,0.1,1.1,0.4 c0.1,0,0.1,0.1,0.1,0.1c0.1,0.1,0,0.3-0.1,0.3c-0.4,0.1-0.8,0.1-1.2,0.1c-0.6,0-2.7-0.1-4.4-0.3c-1.2-0.2-2.6-0.4-2.8-0.4 c-0.3,0,2,0.6,3.8,1.2s3,0.1,4.7,0.1c0.2,0,0.7,0.1,1.3,0.4c0,0,0.3,0.2,0.2,0.3c-0.1,0.1-2.1,0.6-3.2,0.7 c-1.9,0.2-2.2,0-3.1-0.2c-1.1-0.3-3-0.7-3.6-0.8c-0.5-0.1,2.3,1.1,4.5,1.5c0.3,0.1,1.1,0.1,1.4,0.1c1,0.1,2.3-0.2,2.7,0.1 c0.1,0,0.1,0.1,0.2,0.1c0.2,0.2,0.2,0.5-0.1,0.6c-0.6,0.2-1.6,0.4-2.8,0.4c-0.3,0-1.4,0-1.9-0.1c-1.7-0.4-3.8-1.2-4.1-1.2 c-0.2,0,1.1,0.4,2.6,0.9c0.3,0.1,1.8,0.5,2.1,0.6c0.4,0.1,0.6,0.1,1.2,0.3c1.2,0.3,1.3,0.8,0.6,0.9c-0.7,0.1-6.1-0.9-8.5-1.7 c-1.3-0.4-3.9-1-7-2.5l-6-3.4l0,0l-0.9-0.3c-22.2-7.6-35.8-13.8-41.4-19.2c-0.7-0.5-1.2-1.1-1.7-1.8c-0.2-0.3-0.4-0.6-0.5-0.8 l0,0l0,0c-0.1-0.1-0.1-0.2-0.2-0.3c-0.4-0.8-0.6-1.7-0.6-2.5c0-0.1,0-0.1,0-0.2c-2.4-12.3-3.2-47.8-3.2-56.8l0,0L-311.5-408.8 L-311.5-408.8z"></path> <path id="_x5B_clothes_x5D_tshirt--globalStyle1_x2F_peoplechair_x2F_womansitting_x2F_top_x2F_3_2_" class="st32" d=" M-334.5-388.2h26.8c-0.2-12.3-1.2-20.4-2.8-24.2c-2.5-5.7-15.3-5.7-19.9-1.1C-333.6-410.5-334.9-402-334.5-388.2z"></path> </g> </g> <g id="Symbols--globalStyle1_x2F_peoplechair_x2F_womansitting_x2F_chair_x2F_4" transform="translate(18.369809, 195.347242)"> <g id="globalStyle1_x2F_peoplechair_x2F_womansitting_x2F_chair_x2F_4--globalStyle1_x2F_peoplechair_x2F_womansitting_x2F_chair_x2F_4"> <path id="Stroke-1--globalStyle1_x2F_peoplechair_x2F_womansitting_x2F_chair_x2F_4" class="st33" d="M-292.5-383.3l-48,54.1 l14.2-94.6l33.8,36.8l32.5-36.7l17.3,94.6L-292.5-383.3z M-324.7-418.3l-12.1,81.3l42.7-48.1L-324.7-418.3z M-246.6-337 l-14.9-81.3l-29.4,33.2L-246.6-337z"></path> <polygon id="_x5B_chair_x5D_chair--globalStyle1_x2F_peoplechair_x2F_womansitting_x2F_chair_x2F_4" class="st34" points=" -250.2,-424.9 -338.3,-424.9 -338.3,-416.3 -250.2,-416.3 "></polygon> </g> </g> </g> <g id="Group_4_" transform="translate(540.855177, 36.974298)"> <g transform="translate(70.011124, 183.000000) scale(-1, 1) translate(-70.011124, -183.000000) translate(0.011124, 0.000000)"> <g id="globalStyle1_x2F_people_x2F_mnurse_x2F_bottom_x2F_3--globalStyle1_x2F_people_x2F_mnurse_x2F_bottom_x2F_3" transform="translate(9.184905, 155.023270)"> <path id="_x5B_clothes_x5D_shoes--globalStyle1_x2F_people_x2F_mnurse_x2F_bottom_x2F_3" class="st30" d="M381.2-215.7h25.3 v-1.8c0,0-8.2,0-25.2,0L381.2-215.7L381.2-215.7z"></path> <path id="Fill-5--globalStyle1_x2F_people_x2F_mnurse_x2F_bottom_x2F_3" class="st35" d="M353.5-239.6l0.4,22.1h25.5 c0,0-0.9-1.8-4-1.8c-4.6-0.1-15.7,0.4-15.2-2.6c0.1-0.9,0.5-5.7,1.2-16.9L353.5-239.6z"></path> <path id="Fill-5-Copy--globalStyle1_x2F_people_x2F_mnurse_x2F_bottom_x2F_3" class="st35" d="M380.8-239.6l0.4,22.1h25.5 c0,0-0.9-1.8-4-1.8c-4.6-0.1-15.7,0.4-15.2-2.6c0.1-0.9,0.5-5.7,1.2-16.9L380.8-239.6z"></path> <path id="shadow--globalStyle1_x2F_people_x2F_mnurse_x2F_bottom_x2F_3" class="st18" d="M380.8-239.6l0.4,22.1h25.5 c0,0-0.9-1.8-4-1.8c-4.6-0.1-15.7,0.4-15.2-2.6c0.1-0.9,0.5-5.7,1.2-16.9L380.8-239.6z"></path> <path id="_x5B_clothes_x5D_shoes--globalStyle1_x2F_people_x2F_mnurse_x2F_bottom_x2F_3_1_" class="st30" d="M353.9-215.7h25.5 v-1.8c0,0-8.5,0-25.5,0V-215.7z"></path> <path id="_x5B_clothes_x5D_pants--globalStyle1_x2F_people_x2F_mnurse_x2F_bottom_x2F_3" class="st30" d="M399.8-424.4 l5.1,108.7c0,0.4,0.1,0.9,0.1,1.4v-0.1l0,0l0,0l0,0l0,0l0,0l0,0c0,0.4,0,0.9-0.1,1.3l-4,82.6h-27.4v-83.9h0.1v-0.1h-0.1 l-9.4-110.1h35.7L399.8-424.4L399.8-424.4z"></path> <path id="shadow--globalStyle1_x2F_people_x2F_mnurse_x2F_bottom_x2F_3_1_" class="st36" d="M399.8-423.5l5.1,107.8 c0,0.5,0.1,0.9,0.1,1.4v-0.1l0,0l0,0l0,0l0,0l0,0l0,0c0,0.4,0,0.9-0.1,1.3l-4,82.6h-27.4l-0.1-83.9h0.1v-0.1h-0.1L364-423.7 h35.8V-423.5L399.8-423.5z"></path> <path id="_x5B_clothes_x5D_pants--globalStyle1_x2F_people_x2F_mnurse_x2F_bottom_x2F_3_1_" class="st30" d="M375.8-424 l-3.1,108.7c0,0.3,0,0.6,0,1c0,0.7,0,1.3-0.1,2l-3.1,82h-26.8l-1.4-84h0.1l0,0h-0.1L340.9-424H375.8z"></path> </g> <g id="globalStyle1_x2F_people_x2F_mnurse_x2F_head_x2F_9--globalStyle1_x2F_people_x2F_mnurse_x2F_head_x2F_9" transform="translate(36.515597, 0.000000)"> <polygon id="_x5B_skin_x5D_neck--globalStyle1_x2F_people_x2F_mnurse_x2F_head_x2F_9" class="st37" points="340.9,-348.8 358.4,-348.8 356,-395 345.9,-397.7 "></polygon> <polygon id="shadow--globalStyle1_x2F_people_x2F_mnurse_x2F_head_x2F_9" class="st18" points="340.9,-348.8 358.4,-348.8 356,-395 345.9,-397.7 "></polygon> <path id="_x5B_skin_x5D_face--globalStyle1_x2F_people_x2F_mnurse_x2F_head_x2F_9" class="st37" d="M353.3-386.1 c4.9,0.9,7.7-6,8.8-16.1s-2-19-6.9-19.9s-9.7,6.6-10.7,16.6S348.5-387,353.3-386.1z"></path> <path id="_x5B_hair_x5D_hair--globalStyle1_x2F_people_x2F_mnurse_x2F_head_x2F_9" class="st38" d="M345-402.7l2.2-3.7 c0.4-5.4,0.9-8.2,1.6-8.5c3.5-1.4,12.3,0.4,12.8,1.3c0.3,0.5,8.7-6.6,5.5-9.7c-1.5-1.5-10.6-1-15.5-0.3 C341.8-422.3,339.6-415.3,345-402.7z"></path> <path id="smile--globalStyle1_x2F_people_x2F_mnurse_x2F_head_x2F_9" class="st26" d="M359.1-393.7c0.6,0,1.8-0.5,1.7-1.9 l-3.6,0.1C357.3-394.1,358.5-393.7,359.1-393.7z"></path> <g id="Group--globalStyle1_x2F_people_x2F_mnurse_x2F_head_x2F_9" transform="translate(13.426039, 29.584895) rotate(17.000000) translate(-13.426039, -29.584895) translate(2.926039, 21.084895)"> <path id="Path-212--globalStyle1_x2F_people_x2F_mnurse_x2F_head_x2F_9" class="st26" d="M219-504.8l-0.8-0.5 c-2.6,0.2-4.9,1-7.1,2.6c-2.1,1.5-4,3.1-5.7,4.9c0,0-0.1,0.1-0.2,0.2l0.5,4.7c1.4,1,3.4,1.7,5.9,2.2c3.8,0.8,7.7-0.4,8.5-3.1 C220.6-495.7,220.3-499.3,219-504.8z"></path> <path id="Path-209--globalStyle1_x2F_people_x2F_mnurse_x2F_head_x2F_9" class="st27" d="M219-504.8c-1.5-0.1-3.3,0.2-5.3,1.2 c-2,0.9-4.7,3.1-8,6.5l0.5,3.4c3.2,2.1,6.4,3,9.5,2.6c4.3-0.5,6-3,6.1-6.6c0-0.1-0.2-0.1-0.2-0.1c0-0.3,0-1.9,0-2.1 c0-0.9-0.5-1.6-0.8-2.3c0,0-0.1,0-0.4-0.1c-0.1-0.6-0.2-1-0.2-1C219.8-503.7,219.5-504.2,219-504.8z"></path> <path id="Path-210--globalStyle1_x2F_people_x2F_mnurse_x2F_head_x2F_9" class="st28" d="M216.3-502.4c-1.4,0.8-4.1,2.6-8,5.4 c4.2-2.7,7.1-4.2,8.5-4.7c1.4-0.4,2.4-0.7,3.5-0.8l-0.2-1C218.8-503.4,217.5-503.1,216.3-502.4z"></path> <path id="Path-210-Copy--globalStyle1_x2F_people_x2F_mnurse_x2F_head_x2F_9" class="st28" d="M217.9-492.4 c-1.6,0-4.3-0.1-8.3-0.3c4.2-0.1,7-0.3,8.5-0.6c1.1-0.3,2-0.6,2.9-0.9c0,0-0.2,0.4-0.5,0.8c-0.2,0.3-0.6,0.7-0.7,0.7 C219.1-492.6,218.6-492.4,217.9-492.4z"></path> <path id="Path-211--globalStyle1_x2F_people_x2F_mnurse_x2F_head_x2F_9" class="st28" d="M221.5-497.8 c-0.9-0.2-2.9-0.5-5.2,0.1c-2.4,0.7-4.7,1.4-6.7,2.2c5-2.9,8.2-4.5,9.5-4.6c1.2-0.1,2-0.1,2.4,0.1V-497.8z"></path> <polygon id="Path-213--globalStyle1_x2F_people_x2F_mnurse_x2F_head_x2F_9" class="st26" points="205.5,-496.1 202,-498.2 202.5,-497.1 205.7,-495.2 "></polygon> </g> </g> <g id="globalStyle1_x2F_people_x2F_mnurse_x2F_top_x2F_4--globalStyle1_x2F_people_x2F_mnurse_x2F_top_x2F_4" transform="translate(0.672066, 53.765296)"> <path id="_x5B_skin_x5D_hand--globalStyle1_x2F_people_x2F_mnurse_x2F_top_x2F_4" class="st37" d="M387.9-404.5 c0,0,12.7-0.8,19.7,0c-0.4,4.1-0.9,41.3-1.1,55.3c7.5,1.3,20.7,3.8,44.1,8l0,0l0,0c0.2,0,0.3,0,0.5,0l7.8-2.3l4.9-2.4h6 c0.5,0,0.5,0.3,0.4,0.3c-1.4,0.8-2.7,1.1-4.5,1c-1.3,1.3-3,1.2-1.8,2.4c0.1,0.1,3.2-0.2,6-1.1c0.4-0.1,2.4-0.7,2.7-0.8 c1.4-0.5,1.6-0.6,2.5-1.1c0.3-0.1,0.7-0.2,1.3-0.2c0.1,0,0.2,0,0.2,0.1c0.2,0.1,0.2,0.2,0,0.4c-0.3,0.2-0.7,0.5-1.1,0.8 c-0.6,0.4-2.5,1.3-4.3,2c-1.2,0.4-2.7,1-2.8,1.1c-0.2,0.2,2.2-0.5,4.2-0.9s2.9-1.5,4.5-2.4c0.2-0.1,0.7-0.2,1.4-0.3 c0,0,0.4,0,0.4,0.2s-1.7,1.6-2.7,2.3c-1.7,1.1-2.1,1.2-3,1.5c-1.2,0.3-3.2,0.9-3.8,1.1s2.8-0.2,5.1-1c0.4-0.1,1.1-0.5,1.4-0.6 c1-0.4,2.1-1.4,2.6-1.3c0.1,0,0.2,0,0.2,0c0.3,0.1,0.4,0.4,0.2,0.6c-0.5,0.6-1.3,1.2-2.5,1.8c-0.3,0.2-1.4,0.8-1.8,0.9 c-1.9,0.5-4.3,0.8-4.5,1c-0.2,0.1,1.2-0.2,2.9-0.5c0.4-0.1,1.9-0.5,2.2-0.5c0.4-0.1,0.6-0.2,1.3-0.4c1.3-0.4,1.6,0.1,1,0.5 c-0.6,0.5-6.3,2.3-8.9,2.9c-1.4,0.3-4.2,1.1-8,1.3l-8.8,0.5c-0.4,0.2-0.9,0.3-1.4,0.3l0,0l0,0c-37.5,2-55.8,3.6-58.8-3.1 l-0.1-0.2c-0.5-1.2-0.9-2.3-1-3.4v-0.1C387.5-351.8,388.2-393.2,387.9-404.5z"></path> <path id="shadow--globalStyle1_x2F_people_x2F_mnurse_x2F_top_x2F_4" class="st18" d="M451-334v-6.9l7.9-2.3l4.9-2.4h6 c0.5,0,0.5,0.3,0.4,0.3c-1.4,0.8-2.7,1.1-4.5,1c-1.3,1.3-3,1.2-1.8,2.4c0.1,0.1,3.2-0.2,6-1.1c0.4-0.1,2.4-0.7,2.7-0.8 c1.4-0.5,1.6-0.6,2.5-1.1c0.3-0.1,0.7-0.2,1.3-0.2c0.1,0,0.2,0,0.2,0.1c0.2,0.1,0.2,0.2,0,0.4c-0.3,0.2-0.7,0.5-1.1,0.8 c-0.6,0.4-2.5,1.3-4.3,2c-1.2,0.4-2.7,1-2.8,1.1c-0.2,0.2,2.2-0.5,4.2-0.9s2.9-1.5,4.5-2.4c0.2-0.1,0.7-0.2,1.4-0.3 c0,0,0.4,0,0.4,0.2s-1.7,1.6-2.7,2.3c-1.7,1.1-2.1,1.2-3,1.5c-1.2,0.3-3.2,0.9-3.8,1.1s2.8-0.2,5.1-1c0.4-0.1,1.1-0.5,1.4-0.6 c1-0.4,2.1-1.4,2.6-1.3c0.1,0,0.2,0,0.2,0c0.3,0.1,0.4,0.4,0.2,0.6c-0.5,0.6-1.3,1.2-2.5,1.8c-0.3,0.2-1.4,0.8-1.8,0.9 c-1.9,0.5-4.3,0.8-4.5,1c-0.2,0.1,1.2-0.2,2.9-0.5c0.4-0.1,1.9-0.5,2.2-0.5c0.4-0.1,0.6-0.2,1.3-0.4c1.3-0.4,1.6,0.1,1,0.5 c-0.6,0.5-6.3,2.3-8.9,2.9c-1.4,0.3-4.2,1.1-8,1.3L451-334z"></path> <path id="_x5B_clothes_x5D_jacket--globalStyle1_x2F_people_x2F_mnurse_x2F_top_x2F_4" class="st32" d="M380.4-410.4 c6-7.7,17.3-8.5,24.2,0c4.6,5.7,6.5,25,5.7,58.1l40.3,6.4l0.4,16.1c-33.3,2-52.6-1.8-58-11.4 C384.9-355.6,374.4-402.7,380.4-410.4z"></path> <path id="shadow--globalStyle1_x2F_people_x2F_mnurse_x2F_top_x2F_4_1_" class="st18" d="M380.4-410.4c6-7.7,17.3-8.5,24.2,0 c4.6,5.7,6.5,25,5.7,58.1l40.3,6.4l0.4,16.1c-33.3,2-52.6-1.8-58-11.4C384.9-355.6,374.4-402.7,380.4-410.4z"></path> <path id="tshirt--globalStyle1_x2F_people_x2F_mnurse_x2F_top_x2F_4" class="st39" d="M377.4-423.7c-0.5,0.7-14.2,3.3-18.6,4.5 c-15.4,4.1-16.4,12.8-15.8,34.1c0.1,3.4-0.8,24.6,0.4,49.6c0.3,6.7,0.6,13.5,1,20.2c1.3,24.9,72.3,22.6,70.9-2.3 c-0.3-5.2-2.2-54.5-2.2-56.7c-0.3-17-1.4-27.8-3.2-32.5c-3.6-9.4-5.4-14.1-16.5-15.5c0,0,0.4,5.3-3.7,5.3 C385.5-417.1,378.9-426.1,377.4-423.7z"></path> <path id="_x5B_clothes_x5D_jacket--globalStyle1_x2F_people_x2F_mnurse_x2F_top_x2F_4_1_" class="st32" d="M378-424.3 c11.1,20.1,17.7,42.4,19.7,66.9s1,59.6-3,105.3c-14.5-1.2-25.4-3-32.6-5.5c-7.2-2.5-13-5.9-17.5-10 c-2.5-62.4-3.7-100.7-3.4-114.7c0.4-21.1,0.4-27.4,10.6-34.2c2.7-1.8,7.4-3.8,11.1-4.8C365.9-422.1,370.9-423.1,378-424.3z"></path> <polygon id="shadow--globalStyle1_x2F_people_x2F_mnurse_x2F_top_x2F_4_2_" class="st26" points="378.6,-389.6 389.7,-392.7 390.6,-388.4 379.5,-384.9 "></polygon> <path id="_x5B_skin_x5D_hand--globalStyle1_x2F_people_x2F_mnurse_x2F_top_x2F_4_1_" class="st37" d="M346.5-409.2 c0,0,17.7-1.1,24.8,0c-0.8,4.9-0.3,61.6-0.7,63.7c1.3,3.5,3.6,16,10.8,53l0,0c0,0,0,0,0,0.1l3.6,5.9l3.6,4.3l1.4,5.9 c0.1,0.5-0.2,0.5-0.2,0.5c-1.1-1.2-1.7-2.4-2.1-4.2c-1.6-1-1.9-2.6-2.8-1.2c-0.1,0.2,0.9,3.1,2.5,5.6c0.2,0.4,1.2,2.2,1.4,2.4 c0.8,1.3,1,1.4,1.7,2.2c0.2,0.2,0.4,0.6,0.5,1.2c0,0.1,0,0.2,0,0.2c0,0.2-0.2,0.2-0.3,0.1c-0.3-0.3-0.7-0.6-1-0.9 c-0.5-0.5-1.9-2.2-3-3.8c-0.7-1.1-1.6-2.4-1.8-2.5c-0.2-0.2,1,2.1,1.9,3.9c0.9,1.9,2.2,2.5,3.4,3.9c0.2,0.2,0.4,0.6,0.6,1.3 c0,0,0.1,0.4-0.1,0.4s-2-1.2-2.9-2.1c-1.5-1.4-1.7-1.8-2.2-2.6c-0.6-1.1-1.7-3-2-3.5s0.9,2.7,2.2,4.7c0.2,0.3,0.7,0.9,0.9,1.2 c0.7,0.8,1.9,1.7,1.9,2.3c0,0.1,0,0.2,0,0.2c0,0.3-0.3,0.5-0.5,0.4c-0.7-0.3-1.5-1-2.4-2c-0.2-0.2-1.1-1.2-1.3-1.6 c-1-1.7-1.9-4-2-4.2c-0.2-0.1,0.5,1.2,1.2,2.8c0.2,0.4,0.9,1.8,1.1,2.1c0.2,0.4,0.3,0.6,0.7,1.2c0.7,1.2,0.3,1.6-0.3,1.1 s-3.8-5.6-4.9-8.1c-0.6-1.4-2.1-3.9-3.2-7.5l-2-7.3c-0.2-0.4-0.4-0.8-0.5-1.2c-14.8-28.6-21.3-44-21.3-51.9 C351.3-353,344.9-398.7,346.5-409.2z"></path> <path id="_x5B_clothes_x5D_jacket--globalStyle1_x2F_people_x2F_mnurse_x2F_top_x2F_4_2_" class="st32" d="M346.3-410.4 c6-7.7,17.3-8.5,24.2,0c4.6,5.7,6,27.4,4.1,65.2l13.3,52.5l-17.1,4.5l-19.7-48.1C343.8-380.6,342.2-405.3,346.3-410.4z"></path> <path id="shadow--globalStyle1_x2F_people_x2F_mnurse_x2F_top_x2F_4_3_" class="st36" d="M346.3-410.4c6-7.7,17.3-8.5,24.2,0 c4.6,5.7,6,27.4,4.1,65.2l13.3,52.5l-17.1,4.5l-19.7-48.1C343.8-380.6,342.2-405.3,346.3-410.4z"></path> <path id="_x5B_clothes_x5D_jacket--globalStyle1_x2F_people_x2F_mnurse_x2F_top_x2F_4_3_" class="st32" d="M394.8-422.3 c7,24.7,11.3,47.4,12.8,67.9s1.9,54.4,1.2,101.6c1-1.5,2.4-3.5,4-6s3-5,4.2-7.6c-0.6-47.2-1.5-80-2.6-98.4 c-1.6-27.6-1.6-42.7-5.6-49.5C406.1-418.7,401.5-421.4,394.8-422.3z"></path> <path id="Path-357--globalStyle1_x2F_people_x2F_mnurse_x2F_top_x2F_4" class="st13" d="M368.6-420.9l0.7,0.9l0.6,0.9 c4.4,6.2,6.8,11.2,7.3,15.1l0.1,1.1c0.5,3.9,0.7,7.1,0.7,9.6c0,0.5,0.4,0.9,0.9,0.9s0.9-0.4,0.9-0.9c0-2.8-0.3-6.4-0.8-10.9 c-0.6-4.6-3.6-10.6-9-17.8c-0.3-0.4-0.9-0.5-1.3-0.2C368.3-421.9,368.3-421.2,368.6-420.9z"></path> <path id="Combined-Shape--globalStyle1_x2F_people_x2F_mnurse_x2F_top_x2F_4" class="st13" d="M397.4-422.1 c0.4-0.3,1-0.2,1.3,0.2c5.4,7.2,8.4,13.1,9,17.8c0.6,4.5,0.8,8.1,0.8,10.9v0.1c2.3,0.7,3.6,4.1,4,10.1c0,0.3-0.2,0.6-0.5,0.6 h-0.1l0,0l0,0l-2.6,1.6c-0.2,0.1-0.5,0.1-0.6-0.1s-0.1-0.5,0.1-0.6l2.6-1.6l0,0c-0.5-6-1.8-8.9-3.9-8.9s-3.1,3.1-2.9,9.5v-0.3 l2.4,1.5c0.2,0.1,0.3,0.3,0.2,0.5v0.1c-0.1,0.2-0.4,0.3-0.6,0.1l0,0l-2.3-1.4c-0.1,0-0.1,0-0.2,0c-0.3,0-0.5-0.2-0.5-0.5 c-0.2-6.3,0.8-9.9,3.2-10.6v-0.1c0-2.5-0.2-5.7-0.7-9.6l0,0l-0.1-1.1c-0.5-3.9-2.9-9-7.3-15.1l0,0l-0.6-0.9l-0.7-0.9 C396.9-421.2,397-421.8,397.4-422.1z M378.9-395.5c1.7,0,3.1,1.4,3.1,3.1s-1.4,3.1-3.1,3.1s-3.1-1.4-3.1-3.1 C375.8-394,377.2-395.5,378.9-395.5z"></path> </g> </g> </g> <g id="Group_5_" transform="translate(119.000000, 52.415622)"> <g id="globalStyle1_x2F_people_x2F_nurse_x2F_bottom_x2F_3--globalStyle1_x2F_people_x2F_nurse_x2F_bottom_x2F_3" transform="translate(13.889368, 138.893681)"> <path id="_x5B_skin_x5D_leg---globalStyle1_x2F_people_x2F_nurse_x2F_bottom_x2F_3" class="st25" d="M-317.4-424.7 c11.6,0,21,9.3,21,20.9c0,1.5-0.1,2.9-0.4,4.3l-15.9,83c0,0.2-0.1,0.3-0.1,0.5l-0.4,1.9h-0.1l-13.9,84.9c-3.4-0.7-5-1-5.4-0.9 l0,0c0,0,0.3-17.2,2.7-89.1l0,0h0.1l0,0h-0.1l-8.6-83.2h0.1c0-0.5,0-0.9,0-1.4C-338.4-415.3-329-424.7-317.4-424.7z"></path> <path id="_x5B_skin_x5D_leg---globalStyle1_x2F_people_x2F_nurse_x2F_bottom_x2F_3_1_" class="st25" d="M-294.5-422.6 c11,0,19.9,8.9,19.9,19.8c0,2.3-0.4,4.5-1.1,6.6l-13.3,80.5c0,0.6-0.2,1.3-0.3,1.9l-14.1,90.6l-4.6,3.7l-0.5-6c0,0,3.7-78,3.5-90 c0-0.2,0-0.4,0-0.7c0-0.1,0-0.2,0-0.3v-0.1c0-0.3,0.1-0.6,0.1-0.9l-8-78.1c-0.9-2.2-1.3-4.6-1.3-7.1 C-314.4-413.6-305.5-422.5-294.5-422.6z"></path> <path id="Fill-15--globalStyle1_x2F_people_x2F_nurse_x2F_bottom_x2F_3" class="st35" d="M-309.1-239.7v22.8h24 c-0.1-1.5-0.2-2.3-3.1-2.4c-4.3-0.1-14.6,0.4-14.6-3.7c0-0.9,1.7-6,3.9-15.5L-309.1-239.7z"></path> <path id="Fill-15-Copy--globalStyle1_x2F_people_x2F_nurse_x2F_bottom_x2F_3" class="st35" d="M-334.2-239.7v22.8h24 c-0.1-1.5-0.2-2.3-3.1-2.4c-4.3-0.1-14.6,0.4-14.6-3.7c0-0.9,1.7-6,3.9-15.5L-334.2-239.7z"></path> <path id="shadow--globalStyle1_x2F_people_x2F_nurse_x2F_bottom_x2F_3" class="st18" d="M-309.1-239.7v22.8h24 c-0.1-1.5-0.2-2.3-3.1-2.4c-4.3-0.1-14.6,0.4-14.6-3.7c0-0.9,1.7-6,3.9-15.5L-309.1-239.7z"></path> <path id="_x5B_clothes_x5D_shoes--globalStyle1_x2F_people_x2F_nurse_x2F_bottom_x2F_3" class="st30" d="M-309.1-215.3h24v-1.7 c0,0-8.3,0-24,0V-215.3z M-334.2-215.3h24v-1.7c0,0-8.3,0-24,0V-215.3z"></path> <polygon id="_x5B_clothes_x5D_pants--globalStyle1_x2F_people_x2F_nurse_x2F_bottom_x2F_3" class="st30" points="-270.3,-424.7 -294.6,-236.4 -312.2,-236.4 -314.3,-424.7 "></polygon> <polygon id="shadow--globalStyle1_x2F_people_x2F_nurse_x2F_bottom_x2F_3_1_" class="st36" points="-270.3,-424.7 -294.6,-236.4 -312.2,-236.4 -314.3,-424.7 "></polygon> <polygon id="_x5B_clothes_x5D_pants--globalStyle1_x2F_people_x2F_nurse_x2F_bottom_x2F_3_1_" class="st30" points=" -296.4,-424.7 -320.7,-236.4 -338.4,-236.4 -340.5,-424.7 "></polygon> </g> <g id="globalStyle1_x2F_people_x2F_nurse_x2F_head_x2F_2--globalStyle1_x2F_people_x2F_nurse_x2F_head_x2F_2" transform="translate(0.448044, 0.000000)"> <path id="_x5B_hair_x5D_hair--globalStyle1_x2F_people_x2F_nurse_x2F_head_x2F_2" class="st38" d="M-262.9-359.9 c-6.2,40.3-23.8,58.8-34.8,46.5c-0.3-0.3-10.8-20.9-2.6-60c4.8-22.7,9.2-32.1,23.9-32.1C-261.1-405.5-261.1-371.6-262.9-359.9z"></path> <path id="shadow--globalStyle1_x2F_people_x2F_nurse_x2F_head_x2F_2" class="st24" d="M-262.9-359.9 c-6.2,40.3-23.8,58.8-34.8,46.5c-0.3-0.3-10.8-20.9-2.6-60c4.8-22.7,9.2-32.1,23.9-32.1C-261.1-405.5-261.1-371.6-262.9-359.9z"></path> <g id="Group--globalStyle1_x2F_people_x2F_nurse_x2F_head_x2F_2" transform="translate(25.284027, 11.616888)"> <polygon id="_x5B_skin_x5D_skin--globalStyle1_x2F_people_x2F_nurse_x2F_head_x2F_2" class="st40" points="-331.2,-357.6 -310.9,-408.4 -300.5,-400.1 -307.6,-357.6 "></polygon> <polygon id="shadow--globalStyle1_x2F_people_x2F_nurse_x2F_head_x2F_2_1_" class="st18" points="-331.2,-357.6 -310.9,-408.4 -300.5,-400.1 -307.6,-357.6 "></polygon> <ellipse id="sger" transform="matrix(0.2949 0.9555 -0.9555 0.2949 -601.3083 -0.5181)" class="st40" cx="-300.3" cy="-407.7" rx="15.7" ry="9.2"></ellipse> <path id="smile--globalStyle1_x2F_people_x2F_nurse_x2F_head_x2F_2" class="st26" d="M-295.5-397.8c0.6,0,1.9-0.3,2-1.8 l-3.7-0.3C-297.4-398.4-296.2-397.8-295.5-397.8z"></path> </g> <path id="_x5B_hair_x5D_hair--globalStyle1_x2F_people_x2F_nurse_x2F_head_x2F_2_1_" class="st38" d="M-303.4-334.3 c-2.1,29.5-30.6,62.8-36.8,8.5c-2.7-23.7,12.2-38.1,26.1-57.8c7.9-11.1,11-18.5,14.6-25.2c5.6-10.5,14.1-17.2,31.2-5.1 c4.7,3.3,2.2,6.1-7.3,8.2c-0.3,1.4-3.1,1.7-4.8,6.8c-0.3,0.5-4.6,12.8-13,25.5C-303.1-358.7-303.2-337.6-303.4-334.3z"></path> <path id="Rectangle--globalStyle1_x2F_people_x2F_nurse_x2F_head_x2F_2" class="st32" d="M-296.1-425c4.8,1,9.4,1.5,13.9,1.5 s9.1-0.5,13.9-1.5v11c-4.5,1.3-9.1,1.9-13.9,1.9s-9.5-0.6-13.9-1.9V-425z"></path> <path id="Combined-Shape--globalStyle1_x2F_people_x2F_nurse_x2F_head_x2F_2" class="st41" d="M-271-421.3c0.2,0,0.4,0.2,0.4,0.4 l0,0v1.8l1.4-0.1c0.2,0,0.4,0.1,0.5,0.3v0.1c0,0.2-0.2,0.5-0.4,0.5l0,0l-1.4,0.1v2.1c0,0.2-0.2,0.4-0.4,0.4h-0.1 c-0.2,0-0.4-0.2-0.4-0.4l0,0v-2l-1.5,0.1c-0.2,0-0.4-0.1-0.5-0.3v-0.1c0-0.2,0.2-0.5,0.4-0.5l0,0l1.5-0.1v-1.9 C-271.5-421.1-271.3-421.3-271-421.3L-271-421.3z"></path> </g> <g id="globalStyle1_x2F_people_x2F_nurse_x2F_top_x2F_4--globalStyle1_x2F_people_x2F_nurse_x2F_top_x2F_4" transform="translate(6.720662, 60.934002)"> <path id="_x5B_skin_x5D_hand--globalStyle1_x2F_people_x2F_nurse_x2F_top_x2F_4" class="st40" d="M-268.3-403 c1.1,4.2,9,43,11.4,54.8c8,0.5,21.9,1.8,43,3.4h-0.3l6.1-2.6l4.9-2.7l6.1-0.2c0.5,0,0.5,0.3,0.4,0.3c-1.4,0.8-2.7,1.2-4.5,1.2 c-1.3,1.4-3,1.3-1.7,2.5c0.1,0.1,3.2-0.3,6.1-1.4c0.4-0.2,2.4-0.8,2.7-0.9c1.4-0.5,1.6-0.7,2.5-1.2c0.3-0.2,0.7-0.2,1.3-0.2 c0.1,0,0.2,0,0.2,0c0.2,0.1,0.2,0.2,0.1,0.4c-0.3,0.3-0.7,0.5-1.1,0.8c-0.6,0.4-2.5,1.5-4.3,2.2c-1.2,0.5-2.7,1.1-2.8,1.2 c-0.2,0.2,2.2-0.6,4.3-1.1c2-0.5,2.9-1.7,4.5-2.6c0.2-0.1,0.7-0.3,1.4-0.4c0,0,0.4,0,0.4,0.2s-1.6,1.7-2.6,2.5 c-1.7,1.2-2.1,1.3-3,1.6c-1.2,0.3-3.2,1.1-3.8,1.3c-0.6,0.2,2.8-0.3,5.1-1.2c0.4-0.1,1.1-0.5,1.4-0.7c1-0.5,2-1.5,2.6-1.5 c0.1,0,0.2,0,0.2,0c0.3,0.1,0.5,0.4,0.3,0.6c-0.5,0.6-1.3,1.3-2.4,2c-0.3,0.2-1.4,0.8-1.8,1c-1.9,0.6-4.3,1-4.5,1.2 s1.2-0.2,3-0.6c0.4-0.1,2-0.6,2.3-0.6c0.4-0.1,0.7-0.2,1.3-0.4c1.3-0.4,1.6,0,1.1,0.5c-0.6,0.5-6.3,2.6-9,3.3 c-1.5,0.3-4.3,1.3-8,1.6l-7.7,0.1c-25.4,5-44.2,8.6-51.8,5.6l-0.2-0.1c-1-0.3-1.9-0.9-2.6-1.5c-0.1-0.1-0.2-0.2-0.3-0.3 c-1-1-1.7-2.1-2.1-3.3c-6.6-12.8-15.5-51-18-60.5C-288.3-398.6-275.4-401.1-268.3-403z"></path> <path id="shadow--globalStyle1_x2F_people_x2F_nurse_x2F_top_x2F_4" class="st18" d="M-268.3-403c1.1,4.2,9,43,11.4,54.8 c8,0.5,21.9,1.8,43,3.4h-0.3l6.1-2.6l4.9-2.7l6.1-0.2c0.5,0,0.5,0.3,0.4,0.3c-1.4,0.8-2.7,1.2-4.5,1.2c-1.3,1.4-3,1.3-1.7,2.5 c0.1,0.1,3.2-0.3,6.1-1.4c0.4-0.2,2.4-0.8,2.7-0.9c1.4-0.5,1.6-0.7,2.5-1.2c0.3-0.2,0.7-0.2,1.3-0.2c0.1,0,0.2,0,0.2,0 c0.2,0.1,0.2,0.2,0.1,0.4c-0.3,0.3-0.7,0.5-1.1,0.8c-0.6,0.4-2.5,1.5-4.3,2.2c-1.2,0.5-2.7,1.1-2.8,1.2c-0.2,0.2,2.2-0.6,4.3-1.1 c2-0.5,2.9-1.7,4.5-2.6c0.2-0.1,0.7-0.3,1.4-0.4c0,0,0.4,0,0.4,0.2s-1.6,1.7-2.6,2.5c-1.7,1.2-2.1,1.3-3,1.6 c-1.2,0.3-3.2,1.1-3.8,1.3c-0.6,0.2,2.8-0.3,5.1-1.2c0.4-0.1,1.1-0.5,1.4-0.7c1-0.5,2-1.5,2.6-1.5c0.1,0,0.2,0,0.2,0 c0.3,0.1,0.5,0.4,0.3,0.6c-0.5,0.6-1.3,1.3-2.4,2c-0.3,0.2-1.4,0.8-1.8,1c-1.9,0.6-4.3,1-4.5,1.2s1.2-0.2,3-0.6 c0.4-0.1,2-0.6,2.3-0.6c0.4-0.1,0.7-0.2,1.3-0.4c1.3-0.4,1.6,0,1.1,0.5c-0.6,0.5-6.3,2.6-9,3.3c-1.5,0.3-4.3,1.3-8,1.6l-7.7,0.1 c-25.4,5-44.2,8.6-51.8,5.6l-0.2-0.1c-1-0.3-1.9-0.9-2.6-1.5c-0.1-0.1-0.2-0.2-0.3-0.3c-1-1-1.7-2.1-2.1-3.3 c-6.6-12.8-15.5-51-18-60.5C-288.3-398.6-275.4-401.1-268.3-403z"></path> <path id="_x5B_clothes_x5D_jacket--globalStyle1_x2F_people_x2F_nurse_x2F_top_x2F_4" class="st32" d="M-290.7-406.5 c2.2-6.9,14.5-10.5,18.8-7c7.1,5.7,13.3,57.8,15.2,61.9c1.9,4.1,38.6,4.5,41.3,5.4l1.6,9.1c-14.4,10.9-44.8,11.9-52.1,9.4 c-8.8-3-16.5-21.4-23.1-55.1C-291.6-394.1-292.2-401.9-290.7-406.5z"></path> <path id="shadow--globalStyle1_x2F_people_x2F_nurse_x2F_top_x2F_4_1_" class="st36" d="M-290.7-406.5c2.2-6.9,14.5-10.5,18.8-7 c7.1,5.7,13.3,57.8,15.2,61.9c1.9,4.1,38.6,4.5,41.3,5.4l1.6,9.1c-14.4,10.9-44.8,11.9-52.1,9.4c-8.8-3-16.5-21.4-23.1-55.1 C-291.6-394.1-292.2-401.9-290.7-406.5z"></path> <path id="tshirt--globalStyle1_x2F_people_x2F_nurse_x2F_top_x2F_4" class="st42" d="M-305.4-423.4c-31,0-35.1,22.4-34.3,52.5 c0.3,9.8,0.7,31.5,3.8,36.7c7.7,12.8,30.4,13.3,67.9,1.5c2.1-5.6,2.6-23.3,1.3-53l-6.1-22.9c-7-7.4-11.4-11.9-13.4-13.7 c-0.7,1.8-3.3,3.8-5.2,3.8C-294-418.8-303.4-422.8-305.4-423.4z"></path> <path id="_x5B_clothes_x5D_jacket--globalStyle1_x2F_people_x2F_nurse_x2F_top_x2F_4_1_" class="st32" d="M-305.4-423.4 c7.9,12.4,12.8,31.8,14.7,58.4c1.9,26.6,3.4,57.3,4.5,92.3h-51.4l-3.3-108.1c-0.1-17.8,2.9-29.7,9-35.5S-317-424.5-305.4-423.4z"></path> <path id="_x5B_clothes_x5D_jacket--globalStyle1_x2F_people_x2F_nurse_x2F_top_x2F_4_2_" class="st32" d="M-286.2-422.3 c7.2,8.3,11.6,25.5,13.4,51.6s1.7,58.8,0,98l7.6-0.6c0.4-50.5,0.1-86.5-1-107.9c-1.6-32.2-9.6-36-11.2-37.5 C-278.5-419.6-281.4-420.8-286.2-422.3z"></path> <path id="_x5B_skin_x5D_hand--globalStyle1_x2F_people_x2F_nurse_x2F_top_x2F_4_1_" class="st40" d="M-313.5-299.1 c-9.2-21.4-14.3-36.4-15.2-45.6c-2.4-14.7-3.2-51.8-3.2-61.4c0,0,10.9,1.7,18.2,1.7c0,5,2.1,56.1,2.1,58.3c0,0.5,0,1,0,1.4 c0.5,6.4,1.6,17.6,4.2,43.9l0,0h-0.1l0,0h0.1l3.7,5.3l3.6,4.3l1.3,6c0.1,0.5-0.2,0.5-0.2,0.5c-1.1-1.2-1.7-2.4-2.1-4.2 c-1.6-1-1.8-2.7-2.8-1.2c-0.1,0.2,0.9,3.1,2.5,5.7c0.2,0.4,1.2,2.2,1.4,2.5c0.8,1.3,1,1.4,1.7,2.2c0.2,0.2,0.4,0.6,0.5,1.2 c0,0.1,0,0.2,0,0.2c0,0.2-0.2,0.2-0.3,0.1c-0.3-0.3-0.7-0.6-1-0.9c-0.5-0.5-1.9-2.2-2.9-3.8c-0.7-1.1-1.6-2.4-1.7-2.5 c-0.2-0.2,1,2.1,1.9,4c0.8,1.9,2.2,2.5,3.4,3.9c0.2,0.2,0.4,0.6,0.6,1.3c0,0,0.1,0.4-0.1,0.4s-2-1.3-2.9-2.1 c-1.5-1.4-1.7-1.8-2.1-2.7c-0.6-1.1-1.6-3-2-3.5c-0.3-0.5,0.9,2.7,2.1,4.8c0.2,0.3,0.7,0.9,0.9,1.2c0.7,0.9,1.8,1.7,1.9,2.3 c0,0.1,0,0.2,0,0.2c0,0.3-0.3,0.5-0.5,0.4c-0.7-0.4-1.5-1-2.4-2c-0.2-0.2-1.1-1.2-1.3-1.6c-1-1.7-1.8-4.1-2-4.2s0.5,1.2,1.1,2.8 c0.2,0.4,0.9,1.8,1.1,2.1c0.2,0.4,0.3,0.6,0.7,1.2c0.7,1.2,0.3,1.6-0.3,1.1s-3.8-5.7-4.9-8.2c-0.6-1.4-2-4-3.1-7.6L-313.5-299.1 L-313.5-299.1z"></path> <path id="_x5B_clothes_x5D_jacket--globalStyle1_x2F_people_x2F_nurse_x2F_top_x2F_4_3_" class="st32" d="M-334.4-407.7 c4.4-9.4,17.5-7.6,20.4,0.9c1.2,3.4,4.1,32.7,6.5,68.8c0.6,8.9,1.2,21.2,1.7,37.1l-10.4,4c-8.6-18.1-13.9-31.8-15.7-41.1 C-339.2-374.7-336.5-403.2-334.4-407.7z"></path> <path id="shadow--globalStyle1_x2F_people_x2F_nurse_x2F_top_x2F_4_2_" class="st36" d="M-334.4-407.7c4.4-9.4,17.5-7.6,20.4,0.9 c1.2,3.4,4.1,32.7,6.5,68.8c0.6,8.9,1.2,21.2,1.7,37.1l-10.4,4c-8.6-18.1-13.9-31.8-15.7-41.1 C-339.2-374.7-336.5-403.2-334.4-407.7z"></path> <polygon id="shadow--globalStyle1_x2F_people_x2F_nurse_x2F_top_x2F_4_3_" class="st26" points="-308,-384.7 -296.9,-387.9 -296,-383.6 -307.1,-380 "></polygon> <path id="Path-357--globalStyle1_x2F_people_x2F_nurse_x2F_top_x2F_4" class="st13" d="M-312.3-423l0.7,0.9l0.6,0.9 c4.4,6.2,6.8,11.2,7.3,15.1l0.1,1.1c0.5,3.9,0.7,7.1,0.7,9.6c0,0.5,0.4,0.9,0.9,0.9s0.9-0.4,0.9-0.9c0-2.8-0.3-6.4-0.8-10.9 c-0.6-4.6-3.6-10.6-9-17.8c-0.3-0.4-0.9-0.5-1.3-0.2C-312.6-424-312.6-423.4-312.3-423z"></path> <path id="Combined-Shape--globalStyle1_x2F_people_x2F_nurse_x2F_top_x2F_4" class="st13" d="M-283.5-424.2 c0.4-0.3,1-0.2,1.3,0.2c5.4,7.2,8.4,13.1,9,17.8c0.6,4.5,0.8,8.1,0.8,10.9v0.1c2.3,0.7,3.6,4.1,4,10.1c0,0.3-0.2,0.6-0.5,0.6 h-0.1l0,0l0,0l-2.6,1.6c-0.2,0.1-0.5,0.1-0.6-0.1s-0.1-0.5,0.1-0.6l2.6-1.6l0,0c-0.5-6-1.8-8.9-3.9-8.9s-3.1,3.1-2.9,9.5v-0.3 l2.4,1.5c0.2,0.1,0.3,0.3,0.2,0.5v0.1c-0.1,0.2-0.4,0.3-0.6,0.1l0,0l-2.3-1.4c-0.1,0-0.1,0-0.2,0c-0.3,0-0.5-0.2-0.5-0.5 c-0.2-6.3,0.8-9.9,3.2-10.6v-0.1c0-2.5-0.2-5.7-0.7-9.6l0,0l-0.1-1.1c-0.5-3.9-2.9-9-7.3-15.1l0,0l-0.6-0.9l-0.7-0.9 C-284-423.4-283.9-423.9-283.5-424.2z M-302-397.6c1.7,0,3.1,1.4,3.1,3.1s-1.4,3.1-3.1,3.1s-3.1-1.4-3.1-3.1 S-303.7-397.6-302-397.6z"></path> </g> </g> </g> </svg> 